/* XPM */
static char * warlock_32_xpm[] = {
"32 32 559 2",
"  	c None",
". 	c #0A0E10",
"+ 	c #1F2B30",
"@ 	c #31454E",
"# 	c #39515B",
"$ 	c #3C545F",
"% 	c #32444C",
"& 	c #293E46",
"* 	c #0F171B",
"= 	c #0C1012",
"- 	c #3F5057",
"; 	c #536972",
"> 	c #6B8997",
", 	c #7B9DAB",
"' 	c #80A6B6",
") 	c #87AFC0",
"! 	c #90B8C8",
"~ 	c #8BBCD0",
"{ 	c #80ABBC",
"] 	c #6E8E9B",
"^ 	c #485A60",
"/ 	c #242C30",
"( 	c #637B85",
"_ 	c #6A838E",
": 	c #7896A2",
"< 	c #82A2B1",
"[ 	c #7C9EAC",
"} 	c #7D9CA9",
"| 	c #88AAB8",
"1 	c #8FAEBB",
"2 	c #9AB8C4",
"3 	c #9AB8C6",
"4 	c #92B6C6",
"5 	c #8AB4C6",
"6 	c #7999A6",
"7 	c #273439",
"8 	c #232B2F",
"9 	c #728C97",
"0 	c #6B848F",
"a 	c #6B8792",
"b 	c #71929F",
"c 	c #789DAD",
"d 	c #7EA3B2",
"e 	c #88ACBB",
"f 	c #7FA6B6",
"g 	c #84AAB9",
"h 	c #8CAFBD",
"i 	c #8EB1BF",
"j 	c #8CB3C3",
"k 	c #8CB2C2",
"l 	c #99C0D0",
"m 	c #86B3C5",
"n 	c #415A64",
"o 	c #242D30",
"p 	c #6E8A96",
"q 	c #708D99",
"r 	c #7696A2",
"s 	c #7093A0",
"t 	c #6E91A0",
"u 	c #799EAD",
"v 	c #81A6B6",
"w 	c #7CA2B2",
"x 	c #7CA4B4",
"y 	c #82A6B4",
"z 	c #92B5C4",
"A 	c #8AAEBE",
"B 	c #90B8C9",
"C 	c #96BCCA",
"D 	c #9DC3D2",
"E 	c #98C2D2",
"F 	c #8FBCCE",
"G 	c #3C525A",
"H 	c #303638",
"I 	c #5E7681",
"J 	c #688895",
"K 	c #6C8F9E",
"L 	c #719AAA",
"M 	c #7095A4",
"N 	c #6E93A3",
"O 	c #719BAC",
"P 	c #80A8BA",
"Q 	c #7CA3B2",
"R 	c #84ACBD",
"S 	c #8AADBC",
"T 	c #98BAC8",
"U 	c #9ABDCB",
"V 	c #92BACB",
"W 	c #8FB8CA",
"X 	c #9BC0CF",
"Y 	c #98C1D1",
"Z 	c #9CC6D6",
"` 	c #718C96",
" .	c #646B6D",
"..	c #434648",
"+.	c #525A5D",
"@.	c #698895",
"#.	c #64828E",
"$.	c #698E9C",
"%.	c #729AAB",
"&.	c #7399AA",
"*.	c #698E9D",
"=.	c #7198A8",
"-.	c #79A2B2",
";.	c #85ABBA",
">.	c #86AEBF",
",.	c #87AAB9",
"'.	c #8CB4C4",
").	c #92B8C8",
"!.	c #92B8C6",
"~.	c #94BAC9",
"{.	c #9AC0D0",
"].	c #98C1D2",
"^.	c #86A0A9",
"/.	c #8C9294",
"(.	c #7C8384",
"_.	c #303335",
":.	c #4C5052",
"<.	c #536065",
"[.	c #62828D",
"}.	c #688693",
"|.	c #668896",
"1.	c #698A98",
"2.	c #7092A2",
"3.	c #7298A7",
"4.	c #779DAC",
"5.	c #7A9EAD",
"6.	c #80A0AC",
"7.	c #7C8C92",
"8.	c #88ACBA",
"9.	c #88AFBE",
"0.	c #8AB2C4",
"a.	c #97B5C2",
"b.	c #A1C0CC",
"c.	c #9CC1CF",
"d.	c #90BDCD",
"e.	c #9AC2D1",
"f.	c #91BDCC",
"g.	c #828D90",
"h.	c #7C8485",
"i.	c #585C5D",
"j.	c #36393A",
"k.	c #474B4C",
"l.	c #4E5F65",
"m.	c #62828F",
"n.	c #6A8F9E",
"o.	c #678D9C",
"p.	c #648492",
"q.	c #6790A0",
"r.	c #6C909F",
"s.	c #799CAC",
"t.	c #759AAA",
"u.	c #72909C",
"v.	c #697071",
"w.	c #7A97A3",
"x.	c #8EB3C2",
"y.	c #86AFC1",
"z.	c #89B0C0",
"A.	c #92B0BC",
"B.	c #96BAC7",
"C.	c #98BECC",
"D.	c #98BCCB",
"E.	c #90BFD0",
"F.	c #8FB6C3",
"G.	c #576468",
"H.	c #6E7476",
"I.	c #474A4B",
"J.	c #414445",
"K.	c #444849",
"L.	c #5A727D",
"M.	c #628695",
"N.	c #678E9E",
"O.	c #6A91A0",
"P.	c #648796",
"Q.	c #6E96A4",
"R.	c #7094A3",
"S.	c #82A4B2",
"T.	c #7297A6",
"U.	c #64747B",
"V.	c #5F6466",
"W.	c #6A7A7F",
"X.	c #86AABA",
"Y.	c #86B0C0",
"Z.	c #8EB2C0",
"`.	c #94BAC8",
" +	c #95BDCC",
".+	c #94BCCA",
"++	c #8FBCCD",
"@+	c #94C0D0",
"#+	c #728991",
"$+	c #777F81",
"%+	c #616668",
"&+	c #494D4E",
"*+	c #444C4E",
"=+	c #5D7B87",
"-+	c #5A7E8D",
";+	c #658A99",
">+	c #688E9E",
",+	c #69909E",
"'+	c #789DAB",
")+	c #7196A6",
"!+	c #60727A",
"~+	c #666C6D",
"{+	c #6E797C",
"]+	c #80AABA",
"^+	c #86B3C4",
"/+	c #81ACBE",
"(+	c #8DB6C6",
"_+	c #8AB8C9",
":+	c #8BBACB",
"<+	c #94BCCB",
"[+	c #8FB9C8",
"}+	c #8EBBCC",
"|+	c #77939C",
"1+	c #798082",
"2+	c #686E6F",
"3+	c #4B4F50",
"4+	c #464E52",
"5+	c #648795",
"6+	c #5F8291",
"7+	c #5E808E",
"8+	c #668A9A",
"9+	c #6C92A4",
"0+	c #668E9E",
"a+	c #6C92A2",
"b+	c #779EAC",
"c+	c #6D94A5",
"d+	c #5F7178",
"e+	c #6A7071",
"f+	c #767D80",
"g+	c #78A3B4",
"h+	c #81ADC0",
"i+	c #80AEC1",
"j+	c #81ABBC",
"k+	c #81AEC2",
"l+	c #89B6C7",
"m+	c #8FB5C4",
"n+	c #8BB1C0",
"o+	c #8BB5C5",
"p+	c #76949E",
"q+	c #787F80",
"r+	c #7D8385",
"s+	c #4C4F50",
"t+	c #475357",
"u+	c #628795",
"v+	c #5C7C89",
"w+	c #618490",
"x+	c #6E92A2",
"y+	c #6B93A2",
"z+	c #6E97A8",
"A+	c #749CAC",
"B+	c #749CAB",
"C+	c #5A6F76",
"D+	c #6D7274",
"E+	c #7A8284",
"F+	c #7598A4",
"G+	c #86B1C3",
"H+	c #80ACBE",
"I+	c #85AEBE",
"J+	c #89B3C2",
"K+	c #92B6C4",
"L+	c #97B8C6",
"M+	c #96BAC8",
"N+	c #81AAB6",
"O+	c #747C7E",
"P+	c #808789",
"Q+	c #4C5051",
"R+	c #465054",
"S+	c #5B7E8C",
"T+	c #6C91A0",
"U+	c #607F8C",
"V+	c #5E7A86",
"W+	c #688794",
"X+	c #78A0B2",
"Y+	c #6D94A4",
"Z+	c #749EB0",
"`+	c #566A71",
" @	c #6C7273",
".@	c #757C7E",
"+@	c #6C8D9A",
"@@	c #84ACBC",
"#@	c #83ACBC",
"$@	c #80A4B2",
"%@	c #8BB1C2",
"&@	c #94B4C3",
"*@	c #9ABBC9",
"=@	c #9ABECC",
"-@	c #80B0BF",
";@	c #767E80",
">@	c #82888A",
",@	c #464C4E",
"'@	c #5D808D",
")@	c #658795",
"!@	c #658794",
"~@	c #60808C",
"{@	c #68848F",
"]@	c #6C8F9D",
"^@	c #739EAE",
"/@	c #7198A7",
"(@	c #7299A8",
"_@	c #55676D",
":@	c #686E70",
"<@	c #707678",
"[@	c #6A8894",
"}@	c #7AA6B7",
"|@	c #7FA5B4",
"1@	c #7899A6",
"2@	c #84A6B4",
"3@	c #8DB1C0",
"4@	c #94B8C7",
"5@	c #98C2D1",
"6@	c #87B8C6",
"7@	c #788082",
"8@	c #888E8F",
"9@	c #484C4C",
"0@	c #44494A",
"a@	c #638695",
"b@	c #5F818E",
"c@	c #678592",
"d@	c #688B9A",
"e@	c #6A8B98",
"f@	c #6C95A4",
"g@	c #7097A7",
"h@	c #729BAC",
"i@	c #556870",
"j@	c #666B6C",
"k@	c #6B7375",
"l@	c #78A0AE",
"m@	c #79A3B4",
"n@	c #80A8B9",
"o@	c #85AAB8",
"p@	c #8DB0BE",
"q@	c #89ACBA",
"r@	c #99C7D6",
"s@	c #8EB4C1",
"t@	c #86B2BF",
"u@	c #7B8384",
"v@	c #858B8C",
"w@	c #363A3A",
"x@	c #434849",
"y@	c #57717B",
"z@	c #628694",
"A@	c #628594",
"B@	c #628492",
"C@	c #638893",
"D@	c #638491",
"E@	c #6A93A3",
"F@	c #6795A8",
"G@	c #70A0B3",
"H@	c #576A72",
"I@	c #687072",
"J@	c #7093A2",
"K@	c #78A0B0",
"L@	c #799BA8",
"M@	c #7EA3B1",
"N@	c #89ADBA",
"O@	c #92BCCA",
"P@	c #89B9CA",
"Q@	c #7C9AA5",
"R@	c #82898A",
"S@	c #757C7D",
"T@	c #282B2C",
"U@	c #484B4D",
"V@	c #4C5C63",
"W@	c #658592",
"X@	c #5F7E8C",
"Y@	c #648B9B",
"Z@	c #5C7C88",
"`@	c #5E7E8B",
" #	c #668B99",
".#	c #6C97A8",
"+#	c #618998",
"@#	c #596E75",
"##	c #676D6D",
"$#	c #6D8B96",
"%#	c #789CAC",
"&#	c #86A9B6",
"*#	c #7C9EAE",
"=#	c #8CAFBC",
"-#	c #92BAC8",
";#	c #94C2D0",
">#	c #86AEBD",
",#	c #75858A",
"'#	c #8C9394",
")#	c #6A7172",
"!#	c #1D2020",
"~#	c #556D76",
"{#	c #5E7D89",
"]#	c #638795",
"^#	c #5C7A87",
"/#	c #628898",
"(#	c #618491",
"_#	c #678F9E",
":#	c #658D9D",
"<#	c #586B72",
"[#	c #646A6C",
"}#	c #676E70",
"|#	c #6C8995",
"1#	c #7595A2",
"2#	c #86ABB9",
"3#	c #90BCCB",
"4#	c #93B4C0",
"5#	c #8AB2C2",
"6#	c #7DA5B1",
"7#	c #919798",
"8#	c #3F4344",
"9#	c #484C4E",
"0#	c #40484B",
"a#	c #58727C",
"b#	c #58737E",
"c#	c #61808C",
"d#	c #5F8492",
"e#	c #648F9F",
"f#	c #5B7077",
"g#	c #626768",
"h#	c #626A6C",
"i#	c #5E6F76",
"j#	c #708E9A",
"k#	c #7E9DA9",
"l#	c #77949F",
"m#	c #7FA6B5",
"n#	c #8AADBB",
"o#	c #97B6C2",
"p#	c #8ABED0",
"q#	c #728084",
"r#	c #848A8C",
"s#	c #767E7F",
"t#	c #2B2F31",
"u#	c #151617",
"v#	c #4A4F50",
"w#	c #464C4C",
"x#	c #465155",
"y#	c #5A7580",
"z#	c #5A747F",
"A#	c #63808C",
"B#	c #638492",
"C#	c #638794",
"D#	c #67909E",
"E#	c #56686E",
"F#	c #5A5E5F",
"G#	c #60686A",
"H#	c #4E5456",
"I#	c #4E5659",
"J#	c #7698A4",
"K#	c #6E95A3",
"L#	c #779AA8",
"M#	c #95B4C0",
"N#	c #8FB4C0",
"O#	c #65797F",
"P#	c #52585B",
"Q#	c #030303",
"R#	c #464A4B",
"S#	c #4B5051",
"T#	c #4D5152",
"U#	c #536469",
"V#	c #5C7884",
"W#	c #5E7882",
"X#	c #5E7985",
"Y#	c #5D7C88",
"Z#	c #5E7C88",
"`#	c #56656C",
" $	c #535758",
".$	c #62686A",
"+$	c #545A5C",
"@$	c #68828C",
"#$	c #7CA5B4",
"$$	c #82A6B2",
"%$	c #7CA7B5",
"&$	c #67757A",
"*$	c #53585A",
"=$	c #515556",
"-$	c #6A7173",
";$	c #27292A",
">$	c #404344",
",$	c #525757",
"'$	c #555B5B",
")$	c #4E5B5F",
"!$	c #536E78",
"~$	c #63818C",
"{$	c #637D88",
"]$	c #66828D",
"^$	c #5A6B72",
"/$	c #505455",
"($	c #636A6B",
"_$	c #606668",
":$	c #44484A",
"<$	c #647880",
"[$	c #7C959D",
"}$	c #849EA5",
"|$	c #67767A",
"1$	c #5A6062",
"2$	c #595E60",
"3$	c #4F5354",
"4$	c #242627",
"5$	c #4F5454",
"6$	c #4D5252",
"7$	c #525859",
"8$	c #3D474A",
"9$	c #586D74",
"0$	c #56686F",
"a$	c #59666B",
"b$	c #4C5151",
"c$	c #3E4243",
"d$	c #656F71",
"e$	c #5C6464",
"f$	c #596061",
"g$	c #525658",
"h$	c #575C5D",
"i$	c #3B3E3F",
"j$	c #2E2F30",
"k$	c #444848",
"l$	c #424446",
"m$	c #404444",
"n$	c #3C4040",
"o$	c #464B4C",
"p$	c #494E50",
"q$	c #4A5051",
"r$	c #3C4041",
"s$	c #63696B",
"t$	c #424647",
"u$	c #606868",
"v$	c #484C4D",
"w$	c #585E5F",
"x$	c #555A5B",
"y$	c #484D4E",
"z$	c #464A4A",
"A$	c #53595A",
"B$	c #505656",
"C$	c #4E5454",
"D$	c #3C3F3F",
"E$	c #454748",
"F$	c #5D6365",
"G$	c #545B5C",
"H$	c #444748",
"I$	c #494C4E",
"J$	c #505456",
"K$	c #313335",
"L$	c #565C5D",
"M$	c #4A5050",
"N$	c #424648",
"O$	c #3E4142",
"P$	c #444646",
"Q$	c #5E6567",
"R$	c #575E60",
"S$	c #434646",
"T$	c #616868",
"U$	c #434747",
"V$	c #434647",
"W$	c #393D3F",
"X$	c #404343",
"Y$	c #46494A",
"Z$	c #565B5C",
"`$	c #545859",
" %	c #484B4C",
".%	c #54595A",
"+%	c #535A5B",
"@%	c #323435",
"#%	c #454848",
"$%	c #4D5051",
"%%	c #303233",
"                                                                ",
"                      . + @ # $ % & *                           ",
"                  = - ; > , ' ) ! ~ { ] ^                       ",
"                / ( _ : < [ } | 1 2 3 4 5 6 7                   ",
"              8 9 0 a b c d e f g h i j k l m n                 ",
"            o p q r s t u v w x y z A B C D E F G               ",
"          H I J K L M N O P Q R S T U V W X Y Z `  .            ",
"        ..+.@.#.$.%.&.*.=.-.;.>.,.'.).!.~.{.].Z ^./.(.          ",
"      _.:.<.[.}.|.1.2.3.4.5.6.7.8.9.0.a.b.c.d.e.f.g.h.i.        ",
"      j.k.l.m.n.o.p.q.r.s.t.u.v.w.x.y.z.A.B.C.D.E.F.G.H.I.      ",
"      J.K.L.M.N.O.P.Q.R.S.T.U.V.W.X.Y.>.Z.`. +.+++@+#+$+%+      ",
"      &+*+=+-+;+N.>+,+T.'+)+!+~+{+]+^+/+(+_+:+<+[+}+|+1+2+      ",
"      3+4+5+6+7+8+9+0+a+b+c+d+e+f+g+h+i+j+k+l+m+n+o+p+q+r+      ",
"      s+t+u+*.v+w+x+y+z+A+B+C+D+E+F+G+H+' I+J+K+L+M+N+O+P+      ",
"      Q+R+S+T+U+V+W+=.X+Y+Z+`+ @.@+@@@#@, $@%@&@*@=@-@;@>@      ",
"      &+,@'@)@!@~@{@]@^@/@(@_@:@<@[@}@|@1@2@3@4@5@.+6@7@8@      ",
"      9@0@a@b@c@d@p.e@f@g@h@i@j@k@l@m@n@[ o@p@q@r@s@t@u@v@      ",
"      w@x@y@z@A@B@C@D@E@F@G@H@~+I@J@K@d L@M@N@O@5@P@Q@R@S@      ",
"      T@U@V@W@X@Y@Z@`@ #.#+#@###I@$#%#&#*#y =#-#;#>#,#'#)#      ",
"      !#Q+0@~#{#]#^#/#(#_#:#<#[#}#|#S.$@1#2#3#4#5#6#h.7#,@      ",
"        8#9#0#a#b#~@c#d#e#M.f#g#h#i#j#k#l#m#n#o#p#q#r#s#t#      ",
"        u#v#w#x#y#z#A#B#C#D#E#F#G#H#I#J#K#L#M#N#O#.@>@P#        ",
"        Q#R#S#T#U#V#W#X#Y#Z#`# $.$+$..@$#$$$%$&$*$=$-$;$        ",
"          >$,$v#'$)$!$~${$]$^$/$($_$:$<$[$}$|$1$2$3$&+          ",
"          4$5$6$7$6$0@8$9$0$a$b$.$_$c$d$e$f$e$*$g$h$i$          ",
"            j$k$l$m$n$o$p$q$r$I.s$_$t$u$v$v$w$x$y$p$            ",
"                    z$A$B$C$D$E$[#F$k$G$H$I$J$K$                ",
"                      L$M$N$O$P$Q$R$S$T$v#U$V$                  ",
"                        W$K.X$Y$Z$`$ %.%($+%                    ",
"                          @% %X$#%S$H$$%                        ",
"                            %%O$H$k$O$                          ",
"                                                                "};
