/* XPM */
static char * warlock_app_icon_xpm[] = {
"16 16 76 1",
" 	c None",
".	c #650495",
"+	c #680298",
"@	c #670978",
"#	c #660E63",
"$	c #67097C",
"%	c #660E64",
"&	c #660B75",
"*	c #670F63",
"=	c #660C77",
"-	c #670792",
";	c #6701B4",
">	c #6703AC",
",	c #6701C1",
"'	c #6800C9",
")	c #6800CE",
"!	c #6704BC",
"~	c #691367",
"{	c #6800D0",
"]	c #6800D3",
"^	c #6800D4",
"/	c #6501DD",
"(	c #6801DA",
"_	c #6801DF",
":	c #6801E4",
"<	c #6801E8",
"[	c #6A04D6",
"}	c #6C1869",
"|	c #650CC4",
"1	c #690FAA",
"2	c #6801FA",
"3	c #6701FE",
"4	c #6801FE",
"5	c #6603FB",
"6	c #6E1A6C",
"7	c #6804F3",
"8	c #6604FA",
"9	c #6E1976",
"0	c #6704FB",
"a	c #701E6E",
"b	c #6B06FD",
"c	c #6A0FD9",
"d	c #6F1A94",
"e	c #6C09FC",
"f	c #6F18D3",
"g	c #7013EF",
"h	c #7A299D",
"i	c #7720EC",
"j	c #751FF9",
"k	c #7C29B2",
"l	c #7727CC",
"m	c #782EA4",
"n	c #7C2DA5",
"o	c #7D367C",
"p	c #7F377B",
"q	c #84387F",
"r	c #8135A7",
"s	c #7F31CB",
"t	c #7E32CC",
"u	c #7E36DA",
"v	c #884294",
"w	c #813DCE",
"x	c #8437E6",
"y	c #9155A4",
"z	c #9A6490",
"A	c #A97D92",
"B	c #B0856D",
"C	c #BB9562",
"D	c #CEB13E",
"E	c #D7BB31",
"F	c #DDC626",
"G	c #E4CE20",
"H	c #DFCB4C",
"I	c #E9D82D",
"J	c #ECD921",
"K	c #F0DF19",
"    j           ",
"    sJ          ",
"    gt5         ",
"    e344        ",
"    Ay04b       ",
"    IC728w      ",
"    uf:<lKH     ",
"     )^(cBzi    ",
"     !|k{]/_x   ",
"     vEDn,')[   ",
"     mGF1;>-=9  ",
"     hdq.&%#*p  ",
"     r+$###a    ",
"      @##~o     ",
"      }6        ",
"                "};
