<?xml version="1.0" encoding="UTF-8" standalone="no"?>
<!-- Created with Inkscape (http://www.inkscape.org/) -->
<svg
   xmlns:dc="http://purl.org/dc/elements/1.1/"
   xmlns:cc="http://web.resource.org/cc/"
   xmlns:rdf="http://www.w3.org/1999/02/22-rdf-syntax-ns#"
   xmlns:svg="http://www.w3.org/2000/svg"
   xmlns="http://www.w3.org/2000/svg"
   xmlns:sodipodi="http://sodipodi.sourceforge.net/DTD/sodipodi-0.dtd"
   xmlns:inkscape="http://www.inkscape.org/namespaces/inkscape"
   width="24"
   height="24"
   id="svg10033"
   sodipodi:version="0.32"
   inkscape:version="0.45.1"
   sodipodi:docbase="/home/kassah/apps/eclipse/workspace/warlock2/trunk/stormfront/cc.warlock.rcp.stormfront/images/status/standard"
   sodipodi:docname="webbed.svg"
   inkscape:output_extension="org.inkscape.output.svg.inkscape"
   version="1.0">
  <defs
     id="defs10035" />
  <sodipodi:namedview
     id="base"
     pagecolor="#ffffff"
     bordercolor="#666666"
     borderopacity="1.0"
     inkscape:pageopacity="0.0"
     inkscape:pageshadow="2"
     inkscape:zoom="8"
     inkscape:cx="17.032078"
     inkscape:cy="12.046565"
     inkscape:current-layer="layer1"
     showgrid="true"
     inkscape:grid-bbox="true"
     inkscape:document-units="px"
     showguides="true"
     inkscape:guide-bbox="true"
     inkscape:window-width="822"
     inkscape:window-height="598"
     inkscape:window-x="0"
     inkscape:window-y="27"
     width="24px"
     height="24px">
    <sodipodi:guide
       orientation="horizontal"
       position="33.310109"
       id="guide14077" />
  </sodipodi:namedview>
  <metadata
     id="metadata10038">
    <rdf:RDF>
      <cc:Work
         rdf:about="">
        <dc:format>image/svg+xml</dc:format>
        <dc:type
           rdf:resource="http://purl.org/dc/dcmitype/StillImage" />
      </cc:Work>
    </rdf:RDF>
  </metadata>
  <g
     inkscape:groupmode="layer"
     id="layer6" />
  <g
     id="layer1"
     inkscape:label="Layer 1"
     inkscape:groupmode="layer">
    <path
       style="opacity:1;fill:#000000;fill-opacity:0;stroke:#d6d3b2;stroke-width:0.61689007;stroke-linecap:round;stroke-linejoin:round;stroke-miterlimit:4;stroke-dasharray:none;stroke-opacity:1"
       id="path15070"
       d="M 3.2755844,0.59183945 C 3.8960211,1.297729 4.5011561,2.0151701 5.0704849,2.7620142 C 5.8613271,3.8733343 6.6635762,4.9768522 7.4847227,6.0665646 C 8.0635913,6.7867753 8.5469897,7.5714713 9.0369519,8.351185 C 9.5421853,9.1293732 10.085187,9.8841156 10.625429,10.639194 C 11.085935,11.274025 11.581545,11.882101 12.119185,12.454436 C 12.808399,13.195739 13.530695,13.907157 14.254901,14.615102 C 15.072965,15.39511 15.81221,16.246512 16.505563,17.13512 C 17.11701,17.883788 17.696078,18.657436 18.311989,19.402574 C 18.855361,20.051317 19.451542,20.653624 20.048186,21.253966 C 20.405031,21.626287 20.776433,21.984284 21.143859,22.346298 C 21.396977,22.619644 21.657112,22.886412 21.917748,23.15274 L 21.868041,23.200225 C 21.607756,22.934256 21.347909,22.667901 21.095214,22.394845 C 20.727563,22.032599 20.355923,21.67438 19.998851,21.301829 C 19.400732,20.699998 18.803116,20.096162 18.258436,19.445784 C 17.642136,18.700134 17.062633,17.926012 16.450803,17.176828 C 15.759372,16.290606 15.022132,15.441532 14.206271,14.663663 C 13.481369,13.955034 12.758396,13.242912 12.068504,12.500905 C 11.528827,11.926317 11.031217,11.315949 10.568969,10.678628 C 10.027935,9.9224379 9.4841542,9.1665726 8.9782102,8.3872179 C 8.4892727,7.6091354 8.0069829,6.8260229 7.4292632,6.1073598 C 6.6081938,5.0177477 5.805988,3.9143519 5.0152537,2.8031108 C 4.4470032,2.0575555 3.8428374,1.341484 3.2235495,0.63682418 L 3.2755844,0.59183945 z " />
    <path
       style="opacity:1;fill:#000000;fill-opacity:0;stroke:#d6d3b2;stroke-width:0.61689007;stroke-linecap:round;stroke-linejoin:round;stroke-miterlimit:4;stroke-dasharray:none;stroke-opacity:1"
       id="path15072"
       d="M 10.099853,0.93078123 C 10.385404,1.4700572 10.62396,2.0324702 10.881883,2.5850047 C 11.209279,3.3684759 11.428357,4.1901937 11.59765,5.0195126 C 11.71301,5.7069391 11.726638,6.4057263 11.73506,7.1009256 C 11.738781,7.6210354 11.73492,8.1411549 11.733081,8.6612633 C 11.731201,9.208978 11.731029,9.7566957 11.73082,10.304413 C 11.716274,10.910734 11.757242,11.516308 11.822082,12.118925 C 11.876061,12.521787 11.907916,12.926976 11.944856,13.331351 C 12.036547,13.786034 12.124651,14.240211 12.175118,14.701358 C 12.196765,15.105937 12.227653,15.507164 12.295149,15.907102 C 12.443774,16.408784 12.615737,16.90228 12.755498,17.406822 C 12.822917,17.739042 12.904702,18.065304 13.00522,18.388391 C 13.187348,18.840384 13.369302,19.292133 13.530666,19.751841 C 13.722407,20.284027 13.911992,20.816658 14.110139,21.346542 C 14.215225,21.61414 14.316058,21.88336 14.418324,22.152039 C 14.507395,22.455559 14.64471,22.736679 14.787821,23.017576 L 14.726987,23.050044 C 14.582438,22.766322 14.443599,22.482276 14.353488,22.175771 C 14.251214,21.907074 14.150381,21.637832 14.045281,21.370217 C 13.846984,20.839899 13.657232,20.306841 13.46534,19.774222 C 13.30411,19.314782 13.12211,18.863367 12.940195,18.411611 C 12.839146,18.086753 12.756142,17.75897 12.688809,17.424855 C 12.548429,16.918074 12.375029,16.422584 12.226946,15.918327 C 12.159371,15.517095 12.127853,15.114586 12.106376,14.708697 C 12.05599,14.24774 11.967376,13.793873 11.876184,13.339306 C 11.828407,12.935752 11.815867,12.528406 11.753327,12.126143 C 11.688297,11.521115 11.6471,10.91313 11.661678,10.304387 C 11.661886,9.7565991 11.662059,9.2088101 11.663939,8.661025 C 11.665777,8.1412676 11.669635,7.6215005 11.665922,7.1017425 C 11.657566,6.4107979 11.644163,5.7162836 11.529871,5.0330155 C 11.361717,4.2088805 11.144079,3.3923097 10.819096,2.6136142 C 10.562024,2.0628704 10.324164,1.5023322 10.039821,0.96467423 L 10.099853,0.93078123 z " />
    <path
       style="opacity:1;fill:#000000;fill-opacity:0;stroke:#d6d3b2;stroke-width:0.61689007;stroke-linecap:round;stroke-linejoin:round;stroke-miterlimit:4;stroke-dasharray:none;stroke-opacity:1"
       id="path15074"
       d="M 16.1389,1.6167716 C 15.921973,2.3898602 15.705632,3.1630284 15.494482,3.9376901 C 15.309585,4.7821693 15.127837,5.6244847 14.837941,6.4406026 C 14.633106,7.055374 14.334532,7.6334919 14.034463,8.206947 C 13.848884,8.5428901 13.676741,8.8845397 13.516076,9.2325793 C 13.365826,9.6123803 13.144968,9.9570804 12.938939,10.308498 C 12.794621,10.563045 12.646936,10.814894 12.513955,11.075402 C 12.37263,11.327058 12.201706,11.5619 12.038372,11.800138 C 11.892533,12.010116 11.762375,12.229271 11.634237,12.449755 C 11.414282,12.813046 11.2001,13.178908 10.999831,13.55325 C 10.797645,13.916776 10.591054,14.277758 10.396785,14.645596 C 10.270451,14.905991 10.151726,15.169472 10.033289,15.433407 C 9.8906181,15.769213 9.738829,16.100892 9.6483906,16.454606 C 9.5463916,16.938891 9.484532,17.429716 9.4038714,17.917448 C 9.3272814,18.305597 9.2854756,18.697843 9.2554841,19.091602 C 9.2391385,19.388206 9.2405225,19.685354 9.2399577,19.982282 C 9.2369182,20.310903 9.1742619,20.631669 9.1130757,20.95308 C 9.0650079,21.237484 8.9851153,21.512391 8.8938213,21.785378 C 8.8156735,21.972047 8.7192228,22.149851 8.6251382,22.328898 C 8.4558942,22.599086 8.2690113,22.858568 8.0943601,23.125814 C 8.0505249,23.221455 7.9731831,23.293116 7.912595,23.376766 L 7.8584366,23.334298 C 7.8773996,23.308125 8.0481114,23.10822 8.0357626,23.089553 C 8.2095908,22.823672 8.3952487,22.565284 8.5641211,22.296767 C 8.6566976,22.120589 8.7516293,21.945673 8.8288066,21.762127 C 8.9190867,21.492244 8.9978714,21.22044 9.0453652,20.939252 C 9.1057089,20.62239 9.1677012,20.306238 9.1708159,19.982255 C 9.1713846,19.683867 9.1700115,19.385259 9.1864851,19.087199 C 9.2166984,18.691231 9.2586183,18.296761 9.335635,17.906428 C 9.4166764,17.416769 9.4786384,16.923959 9.5813713,16.437808 C 9.6735102,16.080398 9.8253102,15.744629 9.9702414,15.405365 C 10.088998,15.140729 10.208062,14.876552 10.334732,14.615464 C 10.52932,14.24703 10.736127,13.885404 10.938703,13.521327 C 11.138992,13.146968 11.35307,12.78101 11.573146,12.417763 C 11.702413,12.195292 11.833666,11.974155 11.980804,11.762302 C 12.142756,11.526075 12.31231,11.293256 12.452627,11.043852 C 12.585957,10.782869 12.733766,10.530431 12.878442,10.275419 C 13.083484,9.925664 13.303484,9.5827214 13.452956,9.2046941 C 13.614239,8.855517 13.786774,8.5126174 13.973044,8.1755736 C 14.271642,7.604946 14.568923,7.0297402 14.772702,6.4179755 C 15.062155,5.6035007 15.242827,4.7626553 15.427719,3.919926 C 15.638209,3.1476882 15.853438,2.3768167 16.070562,1.606384 L 16.1389,1.6167716 z " />
    <path
       style="opacity:1;fill:#000000;fill-opacity:0;stroke:#d6d3b2;stroke-width:0.61689007;stroke-linecap:round;stroke-linejoin:round;stroke-miterlimit:4;stroke-dasharray:none;stroke-opacity:1"
       id="path15076"
       d="M 20.709928,5.166933 C 20.466183,5.7617132 20.099363,6.2948125 19.720554,6.8121419 C 19.312962,7.3884161 18.822261,7.8974888 18.326457,8.3989013 C 17.763389,8.9617845 17.201991,9.5258504 16.602933,10.051563 C 16.203557,10.402355 15.7636,10.691113 15.305807,10.959679 C 15.034281,11.124098 14.749666,11.264286 14.463821,11.402111 C 14.210032,11.523579 13.970317,11.668839 13.729323,11.812637 C 13.410491,11.999169 13.090178,12.182336 12.759601,12.348247 C 12.510953,12.466866 12.254023,12.565854 11.993919,12.656154 C 11.656997,12.734587 11.306309,12.730671 10.961819,12.740978 C 10.697374,12.723349 10.443444,12.768423 10.187215,12.823339 C 9.8652781,12.948037 9.5426469,13.073531 9.2260543,13.211443 C 8.7994132,13.40226 8.4328971,13.699155 8.0601988,13.97505 C 7.641563,14.232975 7.2819908,14.565677 6.916348,14.889467 C 6.4631905,15.26316 6.0309005,15.65996 5.6033851,16.061747 C 5.1899706,16.495885 4.7870945,16.939491 4.371715,17.371913 C 4.0266724,17.73029 3.7053945,18.109389 3.3797603,18.484691 C 3.1552554,18.75015 2.9256299,19.010736 2.7056143,19.279897 C 2.5691627,19.463735 2.4205159,19.637412 2.2725232,19.812178 C 2.2343501,19.951364 2.0888795,19.905848 1.9970576,19.952682 L 1.9836242,19.88567 C 2.0625251,19.846239 2.1954225,19.908828 2.2203268,19.767376 C 2.367974,19.593005 2.516256,19.419762 2.6523675,19.236318 C 2.8727378,18.966759 3.102704,18.705761 3.3275564,18.439897 C 3.6538596,18.063839 3.9758042,17.683977 4.3215639,17.324886 C 4.7377576,16.891623 5.1413049,16.447045 5.5557314,16.01225 C 5.9837438,15.610001 6.4165184,15.212721 6.8702003,14.838596 C 7.2373402,14.513482 7.5984799,14.17947 8.0187406,13.92038 C 8.3956474,13.641369 8.7664939,13.341533 9.1981667,13.148932 C 9.5182953,13.009557 9.8443555,12.882125 10.17027,12.757108 C 10.431481,12.701203 10.690609,12.654996 10.960139,12.672685 C 11.298076,12.662587 11.642072,12.666504 11.972836,12.591094 C 12.229466,12.502023 12.4829,12.404211 12.728292,12.28734 C 13.056843,12.122496 13.375145,11.940425 13.692036,11.755108 C 13.93511,11.610046 14.176958,11.463577 14.432913,11.341004 C 14.717259,11.203902 15.000421,11.06453 15.270506,10.900939 C 15.724534,10.634586 16.160959,10.34847 16.557019,10.000486 C 17.154895,9.4758868 17.715032,8.9128487 18.277,8.351162 C 18.770439,7.8521601 19.258928,7.3456395 19.664538,6.7720955 C 20.038369,6.2617339 20.399802,5.7360795 20.64285,5.1503645 L 20.709928,5.166933 z " />
    <path
       style="opacity:1;fill:#000000;fill-opacity:0;stroke:#d6d3b2;stroke-width:0.61689007;stroke-linecap:round;stroke-linejoin:round;stroke-miterlimit:4;stroke-dasharray:none;stroke-opacity:1"
       id="path15078"
       d="M 21.842456,12.277457 C 21.421849,12.439072 20.983894,12.558456 20.545453,12.664344 C 19.900169,12.83881 19.238094,12.918642 18.576286,12.998982 C 17.968313,13.093776 17.358737,13.177693 16.750664,13.271709 C 16.415042,13.338453 16.077531,13.338094 15.737786,13.324547 C 15.380788,13.317562 15.028897,13.254797 14.676838,13.20194 C 14.348442,13.140505 14.015265,13.113748 13.683849,13.073945 C 13.302864,13.002587 12.923775,12.918984 12.545112,12.835832 C 12.155771,12.71067 11.784494,12.540129 11.403594,12.392752 C 10.931108,12.202247 10.452267,12.030295 9.9665836,11.876124 C 9.6838226,11.780509 9.4012416,11.697166 9.1279435,11.580791 C 8.6742487,11.346023 8.2406544,11.074741 7.7990469,10.818178 C 7.3360449,10.529313 6.8675514,10.25135 6.3958148,9.9762906 C 5.7795882,9.5658306 5.0857422,9.3265701 4.3903276,9.0864719 C 3.8059233,8.8663811 3.1967577,8.7316773 2.5920283,8.5817559 C 2.3002467,8.5052438 2.0002531,8.4731231 1.7030599,8.4255839 C 1.5662959,8.4106751 1.4305107,8.3883469 1.2945143,8.3679364 L 1.3047714,8.3003791 C 1.4409325,8.3208271 1.5768862,8.3431562 1.7138156,8.3581017 C 2.013038,8.4060234 2.3150946,8.4383542 2.6088573,8.515497 C 3.2155989,8.6659435 3.8267717,8.8011991 4.4131366,9.0219828 C 5.1128213,9.263555 5.8108234,9.5047684 6.4309561,9.9174581 C 6.902656,10.192497 7.3711184,10.470467 7.8340941,10.759291 C 8.2746551,11.015247 8.7072014,11.285916 9.1597991,11.52016 C 9.4293021,11.63535 9.709147,11.715641 9.9878166,11.811112 C 10.474822,11.96577 10.955028,12.138081 11.428808,12.329143 C 11.806719,12.475386 12.175165,12.644252 12.561113,12.769373 C 12.937265,12.851986 13.313865,12.934884 13.692251,13.006138 C 14.02467,13.046089 14.35886,13.072911 14.688249,13.134563 C 15.037691,13.187024 15.386939,13.249469 15.741289,13.256322 C 16.076302,13.269783 16.409025,13.270206 16.739974,13.204217 C 17.348798,13.110085 17.959124,13.026043 18.567855,12.931178 C 19.22698,12.851173 19.886389,12.771823 20.529045,12.597982 C 20.962486,12.493438 21.395497,12.375261 21.811535,12.216356 L 21.842456,12.277457 z " />
    <path
       style="opacity:1;fill:#000000;fill-opacity:0;stroke:#d6d3b2;stroke-width:0.61689007;stroke-linecap:round;stroke-linejoin:round;stroke-miterlimit:4;stroke-dasharray:none;stroke-opacity:1"
       id="path15080"
       d="M 0.67476286,12.879542 C 0.94604019,12.886611 1.2163542,12.875457 1.4868547,12.863314 C 1.8770892,12.800988 2.2679012,12.744398 2.6599208,12.694532 C 3.0119872,12.644508 3.3559623,12.550812 3.702739,12.473727 C 4.1406182,12.391175 4.5800703,12.322211 5.0249077,12.292265 C 5.5815807,12.267768 6.1389085,12.265901 6.6960206,12.263207 C 6.9719798,12.262773 7.2479386,12.263636 7.5238969,12.264196 C 7.8532854,12.25858 8.1818374,12.268898 8.510754,12.284215 C 8.8190054,12.30644 9.1277006,12.319145 9.4365642,12.328636 C 9.6463829,12.333876 9.8562799,12.333338 10.066147,12.333519 C 10.329237,12.329852 10.590501,12.365813 10.850293,12.402453 C 11.189576,12.495157 11.48953,12.669135 11.786328,12.850383 C 12.083737,13.020917 12.377815,13.196055 12.682108,13.354329 C 12.858191,13.474272 13.064468,13.516777 13.265952,13.575428 C 13.489957,13.64099 13.71809,13.691303 13.943721,13.751248 C 14.189672,13.817319 14.415516,13.929531 14.642426,14.041246 C 15.010293,14.257368 15.383908,14.465767 15.741868,14.697718 C 16.202373,14.979386 16.673072,15.24536 17.12565,15.539393 C 17.520159,15.810769 17.882841,16.122298 18.249958,16.427785 C 18.571836,16.676321 18.901528,16.91824 19.248917,17.130979 C 19.812337,17.458892 20.433907,17.669221 21.042473,17.89826 C 21.396288,18.025906 21.747704,18.159935 22.097617,18.297621 L 22.072491,18.361264 C 21.72275,18.223643 21.371503,18.089681 21.01786,17.962099 C 20.405176,17.73151 19.7795,17.519547 19.212471,17.189031 C 18.862409,16.974328 18.529658,16.73094 18.205417,16.480036 C 17.840387,16.176275 17.479802,15.866473 17.087654,15.596467 C 16.635164,15.302354 16.16431,15.036662 15.703937,14.754834 C 15.348487,14.524308 14.977161,14.317689 14.612029,14.102604 C 14.389118,13.992688 14.167341,13.882336 13.925715,13.817205 C 13.698957,13.756911 13.469632,13.706491 13.24455,13.640386 C 13.039438,13.580677 12.829229,13.536592 12.649851,13.414752 C 12.344201,13.25569 12.048689,13.079898 11.749971,12.90849 C 11.461169,12.732072 11.169707,12.56239 10.840249,12.470042 C 10.583791,12.433776 10.32585,12.398241 10.06613,12.401832 C 9.8556438,12.401651 9.6451284,12.402186 9.4346907,12.396924 C 9.1251739,12.387409 8.815824,12.374696 8.5069208,12.352424 C 8.1792385,12.337107 7.8519208,12.32694 7.5237665,12.33251 C 7.2479249,12.331949 6.9720829,12.331088 6.6962406,12.33152 C 6.1406186,12.334206 5.5847831,12.336073 5.0295962,12.360422 C 4.5885331,12.389965 4.1528737,12.458637 3.7186775,12.540201 C 3.3698931,12.61773 3.0239153,12.711923 2.6697897,12.762146 C 2.2763668,12.812195 1.8841896,12.86917 1.4925098,12.931398 C 1.2201096,12.943608 0.9479337,12.955061 0.67476286,12.947856 L 0.67476286,12.879542 z " />
    <path
       style="opacity:1;fill:#000000;fill-opacity:0;stroke:#d6d3b2;stroke-width:0.61689007;stroke-linecap:round;stroke-linejoin:round;stroke-miterlimit:4;stroke-dasharray:none;stroke-opacity:1"
       id="path15082"
       d="M 13.090628,10.035999 C 12.744777,9.763469 12.377329,9.5152285 12.004053,9.2802458 C 11.715884,9.0815603 11.47074,9.0572707 11.145705,9.1232667 C 10.792593,9.3193767 10.480366,9.5802066 10.185048,9.852365 C 9.8871822,10.10095 9.6325081,10.389502 9.384228,10.684524 C 9.1606378,10.949116 9.1100285,11.241717 9.062852,11.57064 C 8.9824319,12.078805 9.105854,12.557767 9.2652061,13.037088 C 9.421518,13.554849 9.7232134,13.992851 10.042315,14.423402 C 10.394119,14.902792 10.959584,15.117064 11.497163,15.330501 C 11.859323,15.4738 12.242121,15.515879 12.62681,15.544032 C 13.066658,15.565651 13.469872,15.37446 13.870213,15.217851 C 14.242818,15.083675 14.605442,14.931425 14.954822,14.747297 C 15.116044,14.598745 15.10947,14.413276 15.123751,14.207743 C 15.128969,13.830479 15.124065,13.453129 15.121854,13.075848 C 15.146102,12.775427 15.071823,12.497873 14.977853,12.21698 C 14.872847,11.898318 14.682373,11.623373 14.502887,11.342864 C 14.21601,10.884292 13.82879,10.505216 13.460862,10.112238 C 13.245808,9.8787671 12.977294,9.7040617 12.717577,9.5237548 C 12.549772,9.4030646 12.355217,9.3429252 12.160246,9.2822693 L 12.180473,9.216944 C 12.381874,9.2798388 12.582794,9.3424983 12.756213,9.4671022 C 13.020295,9.6504497 13.293039,9.8283483 13.511619,10.06585 C 13.882392,10.461898 14.272337,10.84416 14.56133,11.306361 C 14.743795,11.591532 14.936838,11.871389 15.043444,12.195366 C 15.139374,12.483108 15.215322,12.767924 15.190995,13.075459 C 15.193213,13.453867 15.198165,13.832346 15.192826,14.210737 C 15.17626,14.442618 15.17674,14.64269 14.989869,14.806184 C 14.637334,14.991966 14.271732,15.146214 13.895664,15.281367 C 13.485871,15.441643 13.073231,15.635163 12.622988,15.612242 C 12.230786,15.583382 11.840535,15.540165 11.471373,15.393885 C 10.92177,15.175512 10.345689,14.954311 9.9865288,14.46376 C 9.6631761,14.02741 9.3580906,13.582951 9.1995127,13.058395 C 9.0372995,12.569865 8.9126152,12.080864 8.9941306,11.563115 C 9.0327775,11.219776 9.105553,10.917146 9.3301696,10.641932 C 9.5806537,10.344371 9.8374953,10.053213 10.137896,9.8024015 C 10.440459,9.5237747 10.760155,9.2561447 11.123767,9.0584832 C 11.470858,8.9914609 11.733834,9.0099024 12.04121,9.2226351 C 12.418659,9.4603127 12.790533,9.7111248 13.139518,9.9876943 L 13.090628,10.035999 z " />
    <path
       style="opacity:1;fill:#000000;fill-opacity:0;stroke:#d6d3b2;stroke-width:0.61689007;stroke-linecap:round;stroke-linejoin:round;stroke-miterlimit:4;stroke-dasharray:none;stroke-opacity:1"
       id="path15084"
       d="M 11.870512,6.663016 C 11.522094,6.7247955 11.183495,6.825124 10.846788,6.930643 C 10.466452,7.0469979 10.127094,7.2593577 9.7831708,7.4524931 C 9.53919,7.6017707 9.2945367,7.7497396 9.0465374,7.892358 C 8.7244996,8.0838608 8.4375898,8.3083803 8.1807637,8.5786747 C 7.8211458,8.9547321 7.4934086,9.3561715 7.2087005,9.7901424 C 6.8863258,10.296807 6.6807053,10.837248 6.573689,11.423504 C 6.4768957,12.095808 6.4673459,12.777146 6.4791346,13.454989 C 6.4580223,14.05665 6.6945394,14.58648 7.0250284,15.076052 C 7.3208674,15.482529 7.6384318,15.87404 7.9729209,16.250081 C 8.3104486,16.619971 8.6760004,16.963248 9.0400558,17.307232 C 9.3908035,17.669178 9.7805378,17.92591 10.254921,18.09395 C 11.223832,18.341121 12.221911,18.426615 13.216917,18.494201 C 13.979983,18.583947 14.723435,18.520625 15.468616,18.354624 C 15.962452,18.239787 16.438543,18.069098 16.900433,17.866148 C 17.348435,17.691339 17.66094,17.386282 17.962595,17.027061 C 18.357171,16.571542 18.695341,16.068926 18.942185,15.52089 C 19.184437,14.994657 19.019918,14.512221 18.812397,14.005109 C 18.546167,13.463578 18.257279,12.933514 17.988426,12.393383 C 17.796763,12.063052 17.624391,11.723498 17.46763,11.375885 C 17.309329,10.952303 17.077115,10.564241 16.835696,10.182947 C 16.536593,9.7068869 16.228382,9.2368164 15.891001,8.7862658 C 15.678762,8.4645631 15.410566,8.2083796 15.094197,7.9899504 C 14.829169,7.7841858 14.532127,7.6286838 14.236172,7.4728255 C 14.014624,7.3370383 13.795664,7.2000256 13.568068,7.0745618 C 13.275737,6.9245213 12.962688,6.8301245 12.649855,6.7334622 C 12.126747,6.6164471 11.598521,6.5262498 11.068957,6.4438665 C 10.76024,6.3967567 10.447942,6.3930309 10.13642,6.3878123 C 9.9024898,6.383969 9.6686756,6.3878326 9.4352089,6.3968532 C 9.2262979,6.4150153 9.0189268,6.442813 8.8111553,6.4694175 C 8.6806163,6.5141074 8.5557148,6.572806 8.4293464,6.6275395 L 8.4014867,6.5650169 C 8.5333826,6.5079498 8.6635073,6.445988 8.8007049,6.4018888 C 9.0097299,6.3709317 9.2194959,6.350205 9.4297653,6.3287518 C 9.6653289,6.3196394 9.9012036,6.3155099 10.137227,6.3195035 C 10.451879,6.3247882 10.767304,6.3286814 11.079116,6.3762945 C 11.612716,6.4546168 12.142918,6.5533571 12.66975,6.6680377 C 12.986595,6.7659421 13.303595,6.8618421 13.599663,7.0137984 C 13.826917,7.1391835 14.046075,7.2751896 14.266831,7.4115952 C 14.565862,7.5690462 14.865969,7.7262077 15.133825,7.93397 C 15.456115,8.1568577 15.730074,8.4179298 15.946587,8.7456395 C 16.284974,9.1976602 16.594313,9.669118 16.894314,10.14672 C 17.137408,10.530722 17.37118,10.9216 17.530788,11.348083 C 17.687325,11.695237 17.859696,12.034192 18.050928,12.364171 C 18.320354,12.905496 18.610146,13.436595 18.876511,13.979534 C 19.090429,14.503749 19.255748,15.005498 19.005342,15.548693 C 18.755432,16.102211 18.414749,16.610516 18.015798,17.070691 C 17.708093,17.436833 17.387675,17.748358 16.931454,17.927199 C 16.464367,18.132303 15.983281,18.305506 15.483814,18.421267 C 14.732103,18.588503 13.981863,18.652643 13.212174,18.562353 C 12.210851,18.494315 11.206319,18.408201 10.231535,18.158238 C 9.7483043,17.986223 9.3497487,17.725511 8.992268,17.356604 C 8.6267681,17.011254 8.2597997,16.666579 7.9209827,16.295174 C 7.5845062,15.916817 7.2649554,15.522978 6.9674801,15.113918 C 6.6304136,14.613128 6.3888688,14.071057 6.4100025,13.45616 C 6.3982061,12.773856 6.4078511,12.088037 6.5056498,11.411351 C 6.6147958,10.816313 6.8231923,10.267181 7.1506905,9.7529698 C 7.4378682,9.3157298 7.767784,8.9108137 8.1303786,8.531892 C 8.3921851,8.2569267 8.6841973,8.0277883 9.0122853,7.8330158 C 9.2601434,7.6905014 9.5045928,7.5425355 9.7484618,7.3934108 C 10.096385,7.1980311 10.439815,6.9836376 10.824593,6.8659451 C 11.168368,6.7583076 11.514239,6.654863 11.870512,6.5947025 L 11.870512,6.663016 z " />
    <path
       style="opacity:1;fill:#000000;fill-opacity:0;stroke:#d6d3b2;stroke-width:0.61689007;stroke-linecap:round;stroke-linejoin:round;stroke-miterlimit:4;stroke-dasharray:none;stroke-opacity:1"
       id="path15090"
       d="M 8.3769745,6.4725857 C 8.2114045,6.6098466 8.0278474,6.7237134 7.8467603,6.8395744 C 7.6466255,6.9601037 7.4654119,7.1040723 7.2831317,7.2481626 C 7.0965818,7.4145276 7.0261879,7.6450814 6.9423087,7.8711572 C 6.8611745,8.1577798 6.8123613,8.4524044 6.7525169,8.7440092 C 6.6658312,9.1000386 6.4855219,9.4236077 6.3034433,9.7393495 C 6.0918943,10.048418 5.8120772,10.303546 5.5539306,10.573605 C 5.3066339,10.825927 5.1186634,11.106119 4.9730611,11.422643 C 4.887033,11.692959 4.8890103,11.97753 4.8817134,12.25781 C 4.8581135,12.529625 4.90716,12.791104 4.9642638,13.054682 C 5.1182439,13.461379 5.2447179,13.876187 5.3684272,14.292704 C 5.5435668,14.805569 5.6535048,15.333946 5.7418727,15.866623 C 5.7607268,16.212318 5.9148163,16.483586 6.0921988,16.769628 C 6.2773866,17.051808 6.5360217,17.272129 6.7815954,17.500622 C 7.1904278,17.808295 7.6050724,18.109319 8.0177212,18.412559 C 8.5599568,18.797545 9.1533168,19.106058 9.7351433,19.427616 C 10.166904,19.660927 10.592201,19.904905 11.034605,20.117126 C 11.59833,20.275139 12.196158,20.209292 12.773498,20.178105 C 13.447353,20.158024 14.099578,19.962605 14.744665,19.78485 C 15.413813,19.598703 16.079679,19.401334 16.73803,19.180711 C 17.186283,19.037575 17.622353,18.860919 18.057937,18.684688 C 18.384367,18.5446 18.667322,18.330962 18.973452,18.155888 C 19.300233,17.975695 19.609461,17.787617 19.879387,17.533187 C 20.042501,17.346398 20.068808,17.112692 20.113167,16.879588 C 20.184182,16.577147 20.201805,16.267536 20.221576,15.958903 C 20.271661,15.622713 20.274521,15.291289 20.253632,14.953631 C 20.227279,14.635078 20.189795,14.318231 20.144634,14.001839 C 20.095743,13.767719 20.032816,13.536266 19.973044,13.304536 C 19.89449,13.034469 19.851142,12.756357 19.805653,12.479516 C 19.761465,12.162405 19.758462,11.84206 19.752182,11.522648 C 19.755941,11.284988 19.68326,11.061843 19.618229,10.838119 C 19.403823,10.502749 19.078406,10.261798 18.773215,10.011913 C 18.505954,9.811728 18.27345,9.5773921 18.062948,9.3223032 C 17.916331,9.1321831 17.806251,8.9206277 17.700953,8.7066626 C 17.539611,8.4113351 17.335931,8.1401133 17.142679,7.8644482 C 16.890804,7.4421507 16.500525,7.1517032 16.110729,6.8630716 C 15.688645,6.5565005 15.192002,6.3793469 14.711152,6.1852762 C 14.372083,6.0591924 14.062601,5.8689182 13.741596,5.7046185 C 13.512801,5.5700602 13.266055,5.5074334 13.008092,5.4603157 C 12.7618,5.4216601 12.514802,5.4524521 12.26846,5.4718525 C 11.997882,5.4872269 11.727749,5.4956724 11.457813,5.5194718 C 11.215191,5.5479027 10.971231,5.5577348 10.727275,5.5659378 C 10.504893,5.5597033 10.288543,5.6071753 10.07218,5.6503259 C 9.9013835,5.6773721 9.7410958,5.7454358 9.5781255,5.801341 C 9.2918688,5.8927836 9.0186979,6.0130018 8.75354,6.1530631 C 8.3237834,6.4224799 7.8564521,6.5248433 7.3604782,6.5955525 L 7.3506703,6.5279299 C 7.8389514,6.4592894 8.2981107,6.3581491 8.7209683,6.0928047 C 8.9895186,5.9512494 9.265999,5.829268 9.5557986,5.7366873 C 9.7216735,5.6798485 9.8849138,5.6107486 10.058793,5.583305 C 10.278913,5.5394085 10.499109,5.4915285 10.725321,5.4976516 C 10.967624,5.4895195 11.20993,5.479756 11.450908,5.4515 C 11.721389,5.4277798 11.992035,5.4189193 12.263161,5.4037399 C 12.514724,5.3839298 12.766981,5.3530658 13.018463,5.3927752 C 13.283731,5.4416456 13.538047,5.5056956 13.773435,5.6439785 C 14.09271,5.8074459 14.400545,5.9967376 14.73776,6.1222236 C 15.223917,6.318436 15.725706,6.4980553 16.152196,6.8084072 C 16.548015,7.1015185 16.943603,7.3973716 17.199728,7.8258507 C 17.394769,8.1040659 17.600219,8.3778438 17.76278,8.6760816 C 17.866337,8.8868391 17.97466,9.095199 18.119068,9.2823988 C 18.325548,9.5331802 18.555213,9.7623438 18.817333,9.9593139 C 19.131341,10.216428 19.466289,10.464635 19.682473,10.812864 C 19.749876,11.044611 19.825469,11.275436 19.821317,11.521653 C 19.827524,11.837989 19.830409,12.155253 19.874021,12.469327 C 19.919147,12.744185 19.962191,13.020293 20.040231,13.288407 C 20.100559,13.5223 20.164194,13.755898 20.213099,13.992302 C 20.258444,14.310041 20.296081,14.628244 20.322551,14.948153 C 20.343086,15.288824 20.341564,15.623389 20.29062,15.962538 C 20.270645,16.273782 20.252837,16.586023 20.18133,16.891043 C 20.134377,17.13756 20.103744,17.383284 19.929866,17.579869 C 19.654355,17.838299 19.341764,18.032722 19.008056,18.215031 C 18.698756,18.391455 18.413364,18.607927 18.083149,18.748298 C 17.646583,18.924937 17.209499,19.101927 16.760238,19.245405 C 16.10068,19.46641 15.433612,19.66418 14.76324,19.850653 C 14.113327,20.029724 13.45616,20.226075 12.777273,20.246316 C 12.189151,20.278077 11.580019,20.344768 11.006593,20.179581 C 10.562318,19.966297 10.134882,19.721856 9.7013893,19.487236 C 9.11696,19.164237 8.5210027,18.854257 7.9764561,18.467372 C 7.561981,18.162767 7.1452823,17.860654 6.7350191,17.551111 C 6.485475,17.318929 6.2230636,17.094733 6.0349608,16.80795 C 5.8526413,16.51319 5.6933971,16.232112 5.6734414,15.876393 C 5.5856888,15.346888 5.4761752,14.821729 5.3020825,14.311939 C 5.1780589,13.894364 5.0507943,13.478707 4.897066,13.070769 C 4.8388376,12.801563 4.7888143,12.534244 4.8125806,12.256689 C 4.8201367,11.968281 4.8186799,11.675617 4.9086507,11.397806 C 5.0586658,11.073595 5.249401,10.78501 5.5036639,10.526699 C 5.7585202,10.260104 6.034791,10.008265 6.2444249,9.7037605 C 6.4228438,9.3947858 6.5995435,9.077928 6.6849232,8.7296323 C 6.7452736,8.4355419 6.7944062,8.1383688 6.8767576,7.8494276 C 6.965473,7.6112596 7.0411824,7.3702017 7.2387535,7.1957772 C 7.4232596,7.0500699 7.6065502,6.9042758 7.8090408,6.7823217 C 7.986137,6.6690412 8.1654615,6.5576178 8.3280835,6.4242808 L 8.3769745,6.4725857 z " />
    <path
       style="opacity:1;fill:#000000;fill-opacity:0;stroke:#d6d3b2;stroke-width:0.61689007;stroke-linecap:round;stroke-linejoin:round;stroke-miterlimit:4;stroke-dasharray:none;stroke-opacity:1"
       id="path15092"
       d="M 6.656343,4.8617605 C 6.4314246,5.3516993 6.210213,5.8421343 5.9758875,6.32783 C 5.7499154,6.8354791 5.5077939,7.3371906 5.3168092,7.8590837 C 5.2158465,8.1928837 5.025788,8.4871113 4.855242,8.7889807 C 4.7393848,9.0168996 4.6332762,9.2493644 4.5297483,9.4829338 C 4.4245418,9.7157803 4.3134946,9.945978 4.206635,10.17797 C 4.032645,10.648349 3.9154693,11.138677 3.8018402,11.626304 C 3.714225,12.062826 3.6465207,12.503472 3.5819209,12.943934 C 3.5137797,13.277424 3.4725993,13.610011 3.4763657,13.948783 C 3.4911718,14.208753 3.627904,14.423427 3.7547789,14.643162 C 3.9069247,14.927787 4.0869827,15.194526 4.2675419,15.461942 C 4.5265003,15.852007 4.6274374,16.307659 4.7492074,16.750977 C 4.8541628,17.190728 4.942649,17.628939 5.1105767,18.050208 C 5.2334945,18.388541 5.4226778,18.682086 5.6540987,18.9547 C 5.9444774,19.204693 6.3298161,19.321956 6.6807489,19.467265 C 7.1619218,19.655015 7.6182811,19.897869 8.0907396,20.105628 C 8.435371,20.25367 8.7792221,20.403415 9.1243446,20.550374 C 9.5523162,20.748408 10.019096,20.851479 10.475041,20.967251 C 11.224219,21.119009 11.982609,21.221611 12.744505,21.283725 C 13.631563,21.351687 14.522917,21.331627 15.408323,21.253176 C 16.040765,21.19103 16.649652,21.020553 17.239204,20.792765 C 17.774114,20.588767 18.273848,20.320942 18.755004,20.015529 C 19.149284,19.777567 19.50492,19.486181 19.860745,19.197098 C 20.114966,19.023661 20.313497,18.806179 20.494461,18.564572 C 20.675718,18.226677 20.840633,17.880708 21.024418,17.54419 C 21.21687,17.103374 21.401409,16.659329 21.596099,16.219483 C 21.753036,15.897732 21.838343,15.573425 21.872798,15.224163 C 21.85815,14.779602 21.729191,14.35043 21.639555,13.916944 C 21.517334,13.227836 21.466374,12.528488 21.429163,11.83056 C 21.439069,11.414667 21.38496,11.015721 21.269098,10.617219 C 21.108251,10.142126 20.893026,9.6864089 20.664272,9.2400027 C 20.462966,8.8640441 20.282722,8.477804 20.083952,8.1010743 C 19.858088,7.6984145 19.642997,7.2903879 19.411148,6.891349 C 19.138694,6.5284744 18.72148,6.3180562 18.323869,6.110762 C 17.721119,5.8518672 17.090962,5.6642336 16.471964,5.4484695 C 16.00274,5.2895961 15.604339,5.0060534 15.224517,4.6991693 C 14.786933,4.302255 14.301094,3.9824102 13.772896,3.7187368 C 13.406421,3.5239119 13.011031,3.4458541 12.604478,3.3952462 C 12.289651,3.3823399 11.978737,3.4281681 11.668606,3.473827 C 11.349998,3.5211315 11.03258,3.5751093 10.713754,3.6207464 C 10.452303,3.6297941 10.198959,3.6790269 9.9451823,3.7367242 C 9.3482817,3.884597 8.7644924,4.0761048 8.1834285,4.275106 C 7.7934811,4.4140797 7.4077385,4.5621753 7.0296612,4.7294209 C 6.906443,4.7951757 6.7732016,4.8374624 6.6440869,4.8889212 L 6.6215511,4.8243381 C 6.7480368,4.7739232 6.8785838,4.7325126 6.9992839,4.6680536 C 7.3799093,4.4996602 7.7681494,4.3503348 8.1607844,4.21056 C 8.7436528,4.0109592 9.3292627,3.8188928 9.9280066,3.6705519 C 10.184466,3.6123048 10.440543,3.5621643 10.704739,3.553016 C 11.023,3.507475 11.339844,3.4535231 11.657889,3.4063392 C 11.973784,3.3599863 12.290488,3.3133176 12.611149,3.3272515 C 13.026152,3.3792786 13.429972,3.4588388 13.804081,3.6577665 C 14.336706,3.9237568 14.826918,4.2461599 15.268295,4.6462938 C 15.641825,4.9482882 16.03336,5.2277342 16.494969,5.3840481 C 17.11713,5.6009459 17.750634,5.7893249 18.356147,6.0503499 C 18.764947,6.2636652 19.191613,6.4807279 19.470033,6.8555454 C 19.714585,7.2484122 19.908736,7.668893 20.143998,8.0672067 C 20.343306,8.444965 20.524303,8.8320789 20.725961,9.2091489 C 20.956631,9.6594128 21.173693,10.119069 21.335557,10.598375 C 21.452638,11.001839 21.508142,11.405977 21.498209,11.826967 C 21.535224,12.521512 21.585872,13.217472 21.707298,13.90327 C 21.797918,14.34153 21.928267,14.775446 21.941934,15.225037 C 21.905225,15.583407 21.821983,15.916783 21.659522,16.246688 C 21.464031,16.688307 21.278989,17.134249 21.085262,17.57664 C 20.90053,17.914638 20.735363,18.262447 20.552606,18.601539 C 20.367032,18.848179 20.165912,19.072074 19.905595,19.249089 C 19.54737,19.540122 19.189287,19.833403 18.792374,20.073006 C 18.307346,20.380823 17.80353,20.650734 17.264372,20.856392 C 16.668643,21.08629 16.053507,21.258638 15.414493,21.321217 C 14.525132,21.399879 13.629829,21.420176 12.738817,21.351808 C 11.973047,21.289315 11.210762,21.186265 10.45783,21.033414 C 9.9984184,20.916739 9.5282314,20.812614 9.0969861,20.613112 C 8.7516114,20.466041 8.4075059,20.316189 8.0626216,20.168037 C 7.5906479,19.960425 7.1346803,19.717931 6.6540241,19.530268 C 6.2936863,19.381063 5.898604,19.26041 5.6027616,19.00046 C 5.3664819,18.721208 5.1717476,18.421526 5.0462375,18.075224 C 4.8775996,17.651529 4.7874908,17.211193 4.6824788,16.768869 C 4.5626556,16.332635 4.4642374,15.883844 4.2099286,15.499712 C 4.0286103,15.231162 3.8478481,14.963221 3.6949738,14.677445 C 3.5628759,14.448467 3.4223884,14.224225 3.4073781,13.953351 C 3.4041144,13.609743 3.4434352,13.272322 3.5134936,12.934135 C 3.5783902,12.491822 3.6463411,12.049312 3.7344611,11.610976 C 3.8490309,11.119439 3.9671418,10.625157 4.1430367,10.151167 C 4.2499622,9.9190141 4.3610047,9.6886333 4.4663542,9.4556625 C 4.5707942,9.2200996 4.6777659,8.985612 4.7947919,8.7558206 C 4.9635577,8.4571014 5.1520057,8.1662118 5.2517898,7.8358471 C 5.4436893,7.3119112 5.6864046,6.8080484 5.9134734,6.2984353 C 6.146951,5.8145088 6.3673219,5.325843 6.5916031,4.8377739 L 6.656343,4.8617605 z " />
    <path
       style="opacity:1;fill:#000000;fill-opacity:0;stroke:#d6d3b2;stroke-width:0.61689007;stroke-linecap:round;stroke-linejoin:round;stroke-miterlimit:4;stroke-dasharray:none;stroke-opacity:1"
       id="path15094"
       d="M 11.425239,8.1203604 C 11.167552,8.2084539 10.916641,8.3131294 10.66361,8.4132298 C 10.450005,8.495889 10.2493,8.6042635 10.047422,8.710531 C 9.891044,8.7872607 9.7411354,8.8759122 9.5908102,8.9621869 C 9.4637171,9.0787474 9.3762205,9.2281338 9.2806045,9.3692851 C 9.1808902,9.5405391 9.0706733,9.7051018 8.9581517,9.8682158 C 8.8111313,10.053934 8.6892057,10.257393 8.5629614,10.457113 C 8.3773259,10.712886 8.2357034,10.993663 8.1001831,11.276932 C 7.951487,11.5953 7.8263093,11.919597 7.7263615,12.25526 C 7.6569575,12.512666 7.6561364,12.773851 7.6689693,13.037046 C 7.7009539,13.265814 7.806068,13.467091 7.9057271,13.671939 C 7.9990234,13.856512 8.1274384,14.019399 8.2389174,14.193128 C 8.3347319,14.373693 8.4698403,14.513452 8.6085165,14.659136 C 8.7834989,14.795845 8.9037442,14.981669 9.0279933,15.161427 C 9.1316563,15.325192 9.2887866,15.42563 9.440841,15.537057 C 9.6572212,15.689105 9.9088674,15.752004 10.159063,15.827158 C 10.547091,15.9437 10.933069,16.064187 11.315338,16.198077 C 11.549627,16.267124 11.769437,16.372516 11.991927,16.470488 C 12.245946,16.595915 12.510161,16.699115 12.77252,16.805717 C 13.069907,16.928725 13.351809,16.942648 13.661118,16.908549 C 14.110318,16.776557 14.543285,16.598722 14.982895,16.439818 C 15.313143,16.33142 15.631519,16.194542 15.947512,16.051826 C 16.277069,15.897299 16.50803,15.633763 16.740696,15.366804 C 16.948365,15.114012 17.093778,14.825292 17.223625,14.529042 C 17.305413,14.295721 17.318292,14.050602 17.322728,13.806848 C 17.300366,13.623442 17.193877,13.476955 17.103922,13.322742 C 16.962032,13.133278 16.791661,12.967285 16.629128,12.795346 C 16.467138,12.621748 16.341769,12.426218 16.221893,12.22326 C 16.085285,11.977162 16.0578,11.704835 16.029305,11.431565 C 16.03987,11.18751 15.971497,10.956712 15.909491,10.726288 C 15.831213,10.517265 15.665611,10.416371 15.491326,10.28865 C 15.231641,10.126326 15.049471,9.8857137 14.864396,9.6497552 C 14.715723,9.4569241 14.527111,9.3002148 14.342695,9.1425037 C 14.155474,9.0191952 13.942667,8.9504552 13.732476,8.8773241 C 13.509075,8.8007982 13.279656,8.743652 13.053335,8.6761629 C 12.838481,8.6166206 12.632646,8.5328799 12.425703,8.4529417 C 12.194597,8.3349387 11.986753,8.1762964 11.76671,8.0393813 C 11.584378,7.9084517 11.383577,7.882554 11.172157,7.8468384 C 10.878868,7.8701991 10.610086,7.9934103 10.342103,8.1041977 C 10.015228,8.2491784 9.7175239,8.4384837 9.4228159,8.6371684 L 9.3833716,8.5810615 C 9.6822067,8.3798558 9.9839781,8.1878671 10.315424,8.0411749 C 10.592971,7.9266992 10.871123,7.7995989 11.175281,7.7785951 C 11.400841,7.8051758 11.607208,7.8513269 11.801043,7.9800851 C 12.019448,8.1160559 12.226133,8.2729553 12.454918,8.3910257 C 12.658551,8.4696172 12.861188,8.551815 13.072542,8.6105379 C 13.299573,8.6782531 13.529718,8.7355825 13.753826,8.812349 C 13.972009,8.8882686 14.192982,8.9599948 14.386382,9.0895532 C 14.575133,9.2509894 14.768011,9.4114927 14.919942,9.6090745 C 15.100483,9.8393357 15.277616,10.074578 15.531159,10.232812 C 15.715145,10.368467 15.890762,10.478857 15.973403,10.700222 C 16.037518,10.937592 16.109175,11.174755 16.098234,11.426199 C 16.125487,11.689595 16.151012,11.952359 16.282182,12.189814 C 16.399147,12.388109 16.521296,12.579123 16.679585,12.74864 C 16.84409,12.922664 17.016452,13.090751 17.159903,13.282649 C 17.256764,13.448941 17.370197,13.606069 17.391824,13.804314 C 17.387071,14.057434 17.373813,14.311772 17.288048,14.553846 C 17.155013,14.856938 17.006385,15.152427 16.793519,15.410883 C 16.554243,15.685002 16.316089,15.954985 15.977376,16.113439 C 15.659373,16.257064 15.338985,16.394856 15.006649,16.503974 C 14.564064,16.663924 14.128226,16.843189 13.675744,16.975316 C 13.352275,17.009797 13.057996,16.998723 12.74738,16.869356 C 12.484095,16.76238 12.21893,16.658853 11.964013,16.532988 C 11.743042,16.435684 11.524796,16.330888 11.292066,16.262405 C 10.910839,16.128835 10.525876,16.008756 10.1389,15.892502 C 9.8830496,15.815591 9.6250165,15.750319 9.4037799,15.594728 C 9.244759,15.477816 9.0800052,15.372404 8.9715843,15.200931 C 8.8502219,15.025279 8.7332861,14.84322 8.5621491,14.709811 C 8.410879,14.565445 8.2852553,14.410976 8.1803029,14.229362 C 8.0632468,14.0566 7.9406129,13.886355 7.8434408,13.701595 C 7.7399685,13.488911 7.6318395,13.279414 7.5999856,13.041669 C 7.5872164,12.771119 7.5878457,12.502619 7.6594433,12.238074 C 7.7606669,11.898936 7.8864087,11.570926 8.0369496,11.2493 C 8.1741921,10.962629 8.3173871,10.678381 8.5052529,10.419485 C 8.6318735,10.21917 8.7542444,10.015107 8.9016744,9.8288066 C 9.0142496,9.6656857 9.1241383,9.5009023 9.2241769,9.3298062 C 9.3241915,9.1821804 9.4157175,9.0258888 9.551123,8.9062478 C 9.7044489,8.8180539 9.8571255,8.7273275 10.01682,8.6492733 C 10.220262,8.5421451 10.422655,8.4330961 10.637938,8.3498 C 10.89223,8.2492205 11.144404,8.144066 11.403374,8.0555525 L 11.425239,8.1203604 z " />
  </g>
  <g
     inkscape:groupmode="layer"
     id="layer4" />
</svg>
