<?xml version="1.0" encoding="UTF-8" standalone="no"?>
<!-- Created with Inkscape (http://www.inkscape.org/) -->
<svg
   xmlns:dc="http://purl.org/dc/elements/1.1/"
   xmlns:cc="http://web.resource.org/cc/"
   xmlns:rdf="http://www.w3.org/1999/02/22-rdf-syntax-ns#"
   xmlns:svg="http://www.w3.org/2000/svg"
   xmlns="http://www.w3.org/2000/svg"
   xmlns:sodipodi="http://sodipodi.sourceforge.net/DTD/sodipodi-0.dtd"
   xmlns:inkscape="http://www.inkscape.org/namespaces/inkscape"
   width="32px"
   height="32px"
   id="svg10033"
   sodipodi:version="0.32"
   inkscape:version="0.45.1"
   sodipodi:docbase="/home/jhonen/Desktop/War2Work/status icons"
   sodipodi:docname="webbed.svg"
   inkscape:output_extension="org.inkscape.output.svg.inkscape">
  <defs
     id="defs10035" />
  <sodipodi:namedview
     id="base"
     pagecolor="#ffffff"
     bordercolor="#666666"
     borderopacity="1.0"
     inkscape:pageopacity="0.0"
     inkscape:pageshadow="2"
     inkscape:zoom="10"
     inkscape:cx="17.032078"
     inkscape:cy="14.472972"
     inkscape:current-layer="layer6"
     showgrid="true"
     inkscape:grid-bbox="true"
     inkscape:document-units="px"
     showguides="true"
     inkscape:guide-bbox="true"
     inkscape:window-width="822"
     inkscape:window-height="598"
     inkscape:window-x="0"
     inkscape:window-y="25">
    <sodipodi:guide
       orientation="horizontal"
       position="33.310109"
       id="guide14077" />
  </sodipodi:namedview>
  <metadata
     id="metadata10038">
    <rdf:RDF>
      <cc:Work
         rdf:about="">
        <dc:format>image/svg+xml</dc:format>
        <dc:type
           rdf:resource="http://purl.org/dc/dcmitype/StillImage" />
      </cc:Work>
    </rdf:RDF>
  </metadata>
  <g
     inkscape:groupmode="layer"
     id="layer6" />
  <g
     id="layer1"
     inkscape:label="Layer 1"
     inkscape:groupmode="layer">
    <path
       style="opacity:1;fill:#000000;fill-opacity:0;stroke:#d6d3b2;stroke-width:0.8;stroke-linecap:round;stroke-linejoin:round;stroke-miterlimit:4;stroke-dasharray:none;stroke-opacity:1"
       id="path15070"
       d="M 4.11886,0.68339443 C 4.9186227,1.6043476 5.6986611,2.5403716 6.4325442,3.5147569 C 7.451965,4.9646633 8.4860898,6.4043903 9.5445739,7.8261056 C 10.290754,8.7657432 10.91387,9.7895127 11.545447,10.806782 C 12.196709,11.822061 12.896656,12.806751 13.593045,13.79188 C 14.186652,14.620124 14.825509,15.413463 15.518544,16.160171 C 16.406963,17.127327 17.338026,18.055494 18.27155,18.979128 C 19.326061,19.996781 20.278971,21.107581 21.172725,22.266921 C 21.9609,23.243686 22.707338,24.253042 23.501267,25.225201 C 24.20169,26.071596 24.970187,26.857408 25.73928,27.640657 C 26.199264,28.126413 26.678014,28.593481 27.151637,29.06579 C 27.477915,29.422416 27.813237,29.770461 28.149205,30.117931 L 28.085131,30.179883 C 27.749616,29.832881 27.414664,29.485376 27.088933,29.129128 C 26.615019,28.656516 26.135963,28.189159 25.675686,27.703102 C 24.904691,26.917912 24.134345,26.130105 23.432235,25.281576 C 22.637805,24.308748 21.890806,23.298774 21.102138,22.321336 C 20.210861,21.165109 19.260535,20.057347 18.208864,19.042484 C 17.274443,18.117957 16.342508,17.188873 15.453215,16.220799 C 14.757554,15.47115 14.116118,14.674822 13.520266,13.843328 C 12.822856,12.856749 12.121905,11.870594 11.469727,10.853793 C 10.839471,9.8386519 10.217784,8.8169483 9.4730848,7.87933 C 8.4147001,6.4577454 7.3806312,5.0181777 6.3613494,3.5683745 C 5.6288563,2.5956706 4.8500673,1.6614334 4.0517854,0.74208468 L 4.11886,0.68339443 z " />
    <path
       style="opacity:1;fill:#000000;fill-opacity:0;stroke:#d6d3b2;stroke-width:0.8;stroke-linecap:round;stroke-linejoin:round;stroke-miterlimit:4;stroke-dasharray:none;stroke-opacity:1"
       id="path15072"
       d="M 12.915561,1.1256017 C 13.283645,1.8291791 13.591151,2.5629426 13.923622,3.2838179 C 14.345646,4.3059895 14.628045,5.3780603 14.846269,6.460048 C 14.994971,7.3569129 15.012539,8.2685998 15.023394,9.1756057 C 15.028191,9.8541775 15.023214,10.532762 15.020844,11.211332 C 15.01842,11.925919 15.018198,12.64051 15.017929,13.3551 C 14.999179,14.146149 15.051988,14.936224 15.135569,15.72244 C 15.205149,16.248043 15.246212,16.776681 15.293828,17.304257 C 15.412021,17.897468 15.52559,18.490019 15.590644,19.091664 C 15.618547,19.619506 15.658363,20.142975 15.745367,20.664763 C 15.93695,21.319292 16.158616,21.963141 16.338772,22.621402 C 16.425677,23.05484 16.5311,23.480504 16.660672,23.902026 C 16.89544,24.491728 17.129985,25.081112 17.337988,25.680879 C 17.585149,26.375206 17.829529,27.070114 18.084947,27.761438 C 18.220407,28.110565 18.350383,28.461809 18.482208,28.812346 C 18.597023,29.20834 18.774026,29.575109 18.958501,29.941587 L 18.880084,29.983947 C 18.693756,29.613783 18.514788,29.243197 18.398632,28.843309 C 18.266798,28.492747 18.136821,28.141475 18.001343,27.792326 C 17.745732,27.100436 17.501136,26.404971 17.253781,25.710079 C 17.04595,25.110661 16.811347,24.521713 16.576852,23.932321 C 16.446597,23.508488 16.339602,23.080839 16.252807,22.64493 C 16.071853,21.983747 15.848335,21.337296 15.657452,20.679407 C 15.570345,20.155932 15.529717,19.63079 15.502033,19.101239 C 15.437084,18.499842 15.322857,17.907695 15.205308,17.314635 C 15.143722,16.78813 15.127557,16.256678 15.046941,15.731857 C 14.963115,14.942496 14.910011,14.149275 14.928803,13.355067 C 14.929071,12.640384 14.929294,11.9257 14.931718,11.211021 C 14.934087,10.532909 14.93906,9.8547843 14.934274,9.1766715 C 14.923502,8.2752166 14.906226,7.3691045 14.7589,6.4776649 C 14.542144,5.4024404 14.261601,4.3370848 13.842688,3.3211439 C 13.511314,2.6026048 13.204704,1.8712873 12.838177,1.1698209 L 12.915561,1.1256017 z " />
    <path
       style="opacity:1;fill:#000000;fill-opacity:0;stroke:#d6d3b2;stroke-width:0.8;stroke-linecap:round;stroke-linejoin:round;stroke-miterlimit:4;stroke-dasharray:none;stroke-opacity:1"
       id="path15074"
       d="M 20.700085,2.0205929 C 20.42046,3.0292187 20.141589,4.0379483 19.86941,5.0486264 C 19.631072,6.1503933 19.396793,7.2493371 19.023108,8.3141019 C 18.759069,9.1161759 18.374197,9.8704292 17.987399,10.618599 C 17.748181,11.056894 17.526283,11.502634 17.319181,11.956711 C 17.125504,12.452226 16.840811,12.901946 16.575233,13.36043 C 16.389203,13.69253 16.198832,14.02111 16.027415,14.360987 C 15.845243,14.689315 15.624916,14.995706 15.414374,15.306529 C 15.226382,15.58048 15.058605,15.866405 14.893431,16.154064 C 14.609901,16.62804 14.333814,17.105369 14.075661,17.593762 C 13.815037,18.068043 13.548734,18.539006 13.298315,19.018913 C 13.135467,19.358643 12.982427,19.702398 12.829758,20.046747 C 12.64585,20.484863 12.450189,20.917595 12.333611,21.379075 C 12.202131,22.010907 12.122392,22.651272 12.018418,23.287601 C 11.919691,23.794008 11.865802,24.305759 11.827142,24.819485 C 11.806072,25.206455 11.807856,25.594135 11.807128,25.981528 C 11.80321,26.410271 11.722444,26.828765 11.643573,27.2481 C 11.581612,27.619153 11.478628,27.977817 11.360947,28.333974 C 11.260212,28.577516 11.135884,28.809492 11.014606,29.043089 C 10.796445,29.395595 10.555547,29.734133 10.330416,30.082802 C 10.273911,30.207582 10.174215,30.301075 10.096115,30.410211 L 10.026303,30.354804 C 10.050747,30.320657 10.2708,30.059847 10.254882,30.035493 C 10.478952,29.688606 10.718271,29.351495 10.935953,29.001169 C 11.055287,28.771314 11.177657,28.543107 11.277141,28.303639 C 11.393515,27.951531 11.495071,27.596917 11.556292,27.230059 C 11.634077,26.816658 11.713987,26.404184 11.718002,25.981494 C 11.718735,25.592196 11.716965,25.20261 11.7382,24.813741 C 11.777146,24.297133 11.831182,23.782479 11.930459,23.273223 C 12.034924,22.63438 12.114795,21.991426 12.247221,21.357159 C 12.365991,20.890856 12.561666,20.452789 12.748487,20.010161 C 12.901568,19.664898 13.055046,19.320235 13.218327,18.979601 C 13.469157,18.498916 13.735738,18.027113 13.996865,17.552112 C 14.255044,17.063698 14.530997,16.586243 14.814682,16.112326 C 14.981312,15.822074 15.150501,15.533563 15.340166,15.257165 C 15.548928,14.948967 15.767488,14.645214 15.948362,14.319825 C 16.120228,13.979328 16.310759,13.649979 16.497251,13.317273 C 16.761556,12.860958 17.045143,12.413531 17.237817,11.92033 C 17.445717,11.464769 17.66812,11.017398 17.908227,10.577667 C 18.29313,9.8331862 18.676335,9.0827322 18.939012,8.284581 C 19.312126,7.22196 19.545018,6.1249339 19.78335,5.02545 C 20.054678,4.0179343 20.332116,3.0122012 20.611995,2.0070406 L 20.700085,2.0205929 z " />
    <path
       style="opacity:1;fill:#000000;fill-opacity:0;stroke:#d6d3b2;stroke-width:0.8;stroke-linecap:round;stroke-linejoin:round;stroke-miterlimit:4;stroke-dasharray:none;stroke-opacity:1"
       id="path15076"
       d="M 26.592286,6.652383 C 26.278091,7.4283751 25.805249,8.1238939 25.316952,8.7988382 C 24.791553,9.550686 24.159023,10.214858 23.519916,10.869036 C 22.794103,11.603413 22.070444,12.339333 21.298239,13.025215 C 20.78343,13.482882 20.216312,13.859616 19.626202,14.210006 C 19.276196,14.424519 18.909318,14.607418 18.540855,14.787235 C 18.213713,14.94571 17.904713,15.135226 17.594063,15.322835 C 17.183079,15.566198 16.770185,15.805171 16.344061,16.02163 C 16.023545,16.176389 15.692355,16.305535 15.357072,16.423347 C 14.922769,16.525676 14.470721,16.520567 14.026662,16.534015 C 13.685784,16.511014 13.35846,16.569821 13.028173,16.641468 C 12.613186,16.804158 12.197304,16.967886 11.789206,17.147816 C 11.239252,17.396769 10.766801,17.784119 10.286381,18.144072 C 9.746746,18.480578 9.283246,18.914645 8.8119207,19.337084 C 8.2277862,19.824631 7.6705506,20.342323 7.1194695,20.866523 C 6.586565,21.43293 6.0672449,22.01169 5.5318074,22.575858 C 5.0870365,23.043421 4.6728989,23.538021 4.253146,24.027666 C 3.9637521,24.374003 3.6677575,24.713982 3.3841503,25.065148 C 3.2082598,25.304996 3.0166494,25.531587 2.825882,25.759599 C 2.7766757,25.941191 2.5891594,25.881807 2.4707981,25.942911 L 2.453482,25.855482 C 2.5551877,25.804037 2.7264967,25.885696 2.7585992,25.701147 C 2.9489212,25.473651 3.1400614,25.247626 3.3155135,25.008292 C 3.5995778,24.656606 3.8960116,24.31609 4.1858536,23.969225 C 4.6064688,23.478593 5.0214657,22.982998 5.467161,22.514503 C 6.003648,21.949238 6.5238334,21.36921 7.0580424,20.801946 C 7.6097641,20.277143 8.1676244,19.758824 8.7524348,19.270714 C 9.22569,18.846548 9.6912105,18.410772 10.23294,18.072745 C 10.718785,17.708728 11.196818,17.317541 11.753258,17.06626 C 12.165914,16.884421 12.586216,16.718165 13.00633,16.555059 C 13.34304,16.482121 13.677064,16.421836 14.024497,16.444914 C 14.460108,16.43174 14.90353,16.436851 15.329895,16.338465 C 15.6607,16.222257 15.987384,16.094644 16.303702,15.942166 C 16.727215,15.7271 17.137516,15.489557 17.545999,15.247779 C 17.859329,15.058521 18.171079,14.867427 18.501013,14.70751 C 18.867544,14.528637 19.23255,14.346803 19.580698,14.13337 C 20.165954,13.785868 20.72852,13.412581 21.239054,12.958576 C 22.009735,12.274147 22.73177,11.539568 23.456165,10.806752 C 24.092223,10.155719 24.721901,9.4948767 25.244746,8.7465909 C 25.726626,8.0807373 26.192524,7.3949315 26.505821,6.6307666 L 26.592286,6.652383 z " />
    <path
       style="opacity:1;fill:#000000;fill-opacity:0;stroke:#d6d3b2;stroke-width:0.8;stroke-linecap:round;stroke-linejoin:round;stroke-miterlimit:4;stroke-dasharray:none;stroke-opacity:1"
       id="path15078"
       d="M 28.052151,15.929273 C 27.509976,16.140127 26.945437,16.295883 26.380273,16.434033 C 25.548481,16.661653 24.695046,16.765807 23.841954,16.870624 C 23.058257,16.994299 22.272494,17.103783 21.488669,17.226443 C 21.056041,17.313522 20.620979,17.313054 20.183037,17.29538 C 19.722854,17.286266 19.269256,17.204379 18.815441,17.135418 C 18.392128,17.055265 17.962652,17.020357 17.535446,16.968427 C 17.044344,16.875328 16.555686,16.766253 16.067578,16.657768 C 15.565704,16.494472 15.087116,16.271973 14.596124,16.079695 C 13.987075,15.831148 13.369834,15.606807 12.743772,15.405665 C 12.379284,15.280919 12.015028,15.172184 11.662738,15.020353 C 11.077911,14.714058 10.518994,14.360125 9.9497478,14.025395 C 9.3529234,13.648521 8.7490204,13.285871 8.1409368,12.927009 C 7.346601,12.391494 6.4522113,12.079338 5.5557996,11.766089 C 4.8024838,11.478943 4.0172498,11.303199 3.2377343,11.107601 C 2.8616185,11.007778 2.4749171,10.965871 2.0918256,10.903848 C 1.9155324,10.884397 1.740501,10.855266 1.5651973,10.828637 L 1.578419,10.740497 C 1.753935,10.767175 1.9291837,10.796307 2.1056901,10.815806 C 2.4913973,10.878328 2.8807579,10.920509 3.2594275,11.021155 C 4.0415368,11.217438 4.8293581,11.393902 5.5852012,11.681952 C 6.4871171,11.997124 7.3868641,12.311828 8.1862351,12.850252 C 8.7942713,13.209087 9.3981343,13.571746 9.9949248,13.948566 C 10.562822,14.282505 11.120388,14.635638 11.703801,14.941249 C 12.051199,15.091535 12.411928,15.196288 12.771142,15.320846 C 13.398907,15.522624 14.017909,15.747433 14.628626,15.996706 C 15.115766,16.187505 15.590704,16.407819 16.088204,16.571061 C 16.573075,16.678843 17.058525,16.786998 17.546277,16.879961 C 17.974775,16.932084 18.405557,16.967077 18.83015,17.047513 C 19.280591,17.115958 19.730783,17.197428 20.187552,17.206368 C 20.619395,17.22393 21.048285,17.224482 21.474889,17.138388 C 22.259682,17.015577 23.046412,16.90593 23.831086,16.782163 C 24.680719,16.677783 25.530719,16.574257 26.359123,16.347452 C 26.917842,16.211056 27.476007,16.056874 28.012293,15.849556 L 28.052151,15.929273 z " />
    <path
       style="opacity:1;fill:#000000;fill-opacity:0;stroke:#d6d3b2;stroke-width:0.8;stroke-linecap:round;stroke-linejoin:round;stroke-miterlimit:4;stroke-dasharray:none;stroke-opacity:1"
       id="path15080"
       d="M 0.76631784,16.714795 C 1.116003,16.724018 1.4644464,16.709465 1.8131302,16.693622 C 2.3161549,16.612308 2.8199241,16.538476 3.3252499,16.473418 C 3.7790748,16.408153 4.2224697,16.28591 4.6694759,16.18534 C 5.2339162,16.077637 5.8003841,15.987661 6.3737937,15.948592 C 7.091363,15.916632 7.8097764,15.914196 8.5279117,15.910681 C 8.8836319,15.910115 9.2393516,15.91124 9.5950707,15.911971 C 10.019663,15.904644 10.443177,15.918106 10.867161,15.93809 C 11.264507,15.967086 11.662425,15.983662 12.06056,15.996044 C 12.331023,16.002881 12.601587,16.002179 12.872112,16.002415 C 13.211244,15.997631 13.548022,16.044548 13.882902,16.092351 C 14.320248,16.213299 14.706898,16.440283 15.089481,16.676752 C 15.472851,16.899243 15.851927,17.12774 16.24417,17.334235 C 16.471146,17.490722 16.737044,17.546177 16.996763,17.622696 C 17.285513,17.708234 17.579584,17.773875 17.870429,17.852084 C 18.187468,17.938284 18.478588,18.084684 18.771083,18.230436 C 19.245275,18.512403 19.726877,18.784295 20.188298,19.086915 C 20.781904,19.454399 21.38865,19.801407 21.972037,20.185023 C 22.480572,20.53908 22.948081,20.945522 23.421307,21.344082 C 23.836217,21.66834 24.261201,21.983964 24.708997,22.261518 C 25.435263,22.689337 26.236487,22.963747 27.020948,23.262567 C 27.477026,23.429103 27.930013,23.603967 28.381062,23.783602 L 28.348674,23.866635 C 27.897846,23.687085 27.445078,23.512308 26.989221,23.345856 C 26.199451,23.045013 25.392935,22.768472 24.662016,22.337257 C 24.210776,22.057141 23.781849,21.739599 23.363892,21.412252 C 22.893356,21.015945 22.428551,20.611755 21.92306,20.259486 C 21.339786,19.875765 20.732839,19.529125 20.139404,19.161433 C 19.681218,18.860672 19.202566,18.591103 18.7319,18.310487 C 18.44456,18.167083 18.158683,18.023111 17.847219,17.938136 C 17.554921,17.859472 17.259314,17.793691 16.969176,17.707445 C 16.704779,17.629545 16.433814,17.572029 16.20259,17.413068 C 15.808597,17.205544 15.427673,16.976193 15.042616,16.752563 C 14.67034,16.522395 14.294637,16.301016 13.869955,16.180532 C 13.539372,16.133217 13.206878,16.086856 12.87209,16.091541 C 12.600767,16.091304 12.329406,16.092003 12.058145,16.085137 C 11.659168,16.072723 11.260406,16.056137 10.86222,16.027079 C 10.439827,16.007096 10.017904,15.993831 9.5949026,16.001098 C 9.239334,16.000367 8.8837648,15.999243 8.5281952,15.999807 C 7.8119807,16.003311 7.095491,16.005747 6.3798373,16.037514 C 5.8112929,16.076058 5.2497139,16.165652 4.6900212,16.272067 C 4.2404269,16.373217 3.7944505,16.496107 3.3379713,16.561632 C 2.8308365,16.626929 2.3253076,16.701263 1.8204198,16.78245 C 1.4692873,16.79838 1.1184438,16.813322 0.76631784,16.803922 L 0.76631784,16.714795 z " />
    <path
       style="opacity:1;fill:#000000;fill-opacity:0;stroke:#d6d3b2;stroke-width:0.8;stroke-linecap:round;stroke-linejoin:round;stroke-miterlimit:4;stroke-dasharray:none;stroke-opacity:1"
       id="path15082"
       d="M 16.770765,13.004909 C 16.324952,12.649347 15.8513,12.325475 15.370135,12.0189 C 14.998676,11.759681 14.682678,11.727991 14.263697,11.814094 C 13.808525,12.069953 13.406054,12.41025 13.02538,12.765327 C 12.641421,13.089649 12.313138,13.466114 11.993097,13.85102 C 11.704882,14.196225 11.639645,14.577973 11.578833,15.007109 C 11.475169,15.670097 11.634264,16.294984 11.839674,16.920341 C 12.041165,17.595848 12.43006,18.167296 12.841392,18.729023 C 13.294879,19.354469 14.023781,19.634023 14.716738,19.912488 C 15.183573,20.099446 15.677012,20.154346 16.172889,20.191076 C 16.739867,20.219282 17.259623,19.96984 17.775675,19.765517 C 18.255975,19.590462 18.723409,19.391826 19.173771,19.151599 C 19.381591,18.957788 19.373117,18.715812 19.391526,18.447659 C 19.398252,17.955454 19.39193,17.463137 19.38908,16.97091 C 19.420337,16.578959 19.324589,16.216842 19.203459,15.85037 C 19.068102,15.434621 18.822575,15.075908 18.591212,14.709937 C 18.221419,14.111652 17.722279,13.617082 17.248008,13.104376 C 16.970797,12.799773 16.624674,12.57184 16.289891,12.336599 C 16.073585,12.179138 15.822797,12.100676 15.571473,12.02154 L 15.597546,11.936312 C 15.857159,12.018369 16.116151,12.100119 16.339694,12.262686 C 16.680104,12.501894 17.031679,12.733993 17.313436,13.043855 C 17.791374,13.560566 18.294026,14.059292 18.666547,14.662312 C 18.90175,15.034367 19.150589,15.399487 19.288007,15.822171 C 19.411664,16.197579 19.509564,16.56917 19.478205,16.970402 C 19.481064,17.4641 19.487448,17.95789 19.480566,18.451565 C 19.459212,18.754094 19.45983,19.015122 19.218948,19.228427 C 18.764519,19.470812 18.293246,19.672055 17.808482,19.848385 C 17.280246,20.057492 16.74834,20.309971 16.167962,20.280067 C 15.662401,20.242414 15.159355,20.18603 14.683494,19.995183 C 13.975038,19.710278 13.232451,19.421684 12.769482,18.781677 C 12.35267,18.212384 11.959405,17.632512 11.754993,16.948139 C 11.545895,16.310769 11.385173,15.672784 11.490249,14.997291 C 11.540066,14.549347 11.633876,14.154515 11.923414,13.795451 C 12.246296,13.407233 12.577373,13.027368 12.964599,12.700141 C 13.354612,12.336625 13.766711,11.987456 14.235418,11.729573 C 14.68283,11.642131 15.021814,11.666191 15.418032,11.943737 C 15.904576,12.253828 16.383933,12.581055 16.833786,12.941887 L 16.770765,13.004909 z " />
    <path
       style="opacity:1;fill:#000000;fill-opacity:0;stroke:#d6d3b2;stroke-width:0.8;stroke-linecap:round;stroke-linejoin:round;stroke-miterlimit:4;stroke-dasharray:none;stroke-opacity:1"
       id="path15084"
       d="M 15.197997,8.6042781 C 14.748875,8.6848799 14.31241,8.8157755 13.878384,8.9534431 C 13.388118,9.1052478 12.950675,9.3823074 12.507347,9.6342854 C 12.192848,9.8290434 11.877482,10.022094 11.557803,10.208164 C 11.142686,10.458012 10.77285,10.750936 10.441793,11.103581 C 9.978234,11.594212 9.5557703,12.117958 9.1887725,12.684147 C 8.7732211,13.345177 8.5081697,14.050275 8.3702223,14.815145 C 8.2454527,15.692281 8.2331426,16.581202 8.2483387,17.465564 C 8.2211243,18.250533 8.5260024,18.941786 8.9520133,19.580516 C 9.3333592,20.110834 9.7427098,20.621627 10.173877,21.112237 C 10.608961,21.594822 11.080169,22.042685 11.549448,22.491471 C 12.001573,22.96369 12.503953,23.298641 13.115448,23.517878 C 14.364405,23.840354 15.650961,23.951896 16.933556,24.040073 C 17.917172,24.157163 18.875505,24.074548 19.836068,23.857972 C 20.472638,23.708147 21.086335,23.485454 21.681725,23.220671 C 22.259214,22.992604 22.662043,22.594604 23.050886,22.12594 C 23.559508,21.531637 23.995419,20.875889 24.313609,20.160883 C 24.62588,19.474322 24.41381,18.844903 24.146309,18.183289 C 23.80313,17.476769 23.430743,16.785211 23.084183,16.080517 C 22.837124,15.649545 22.614931,15.206539 22.412861,14.753018 C 22.208806,14.200384 21.909475,13.694091 21.598277,13.196628 C 21.212724,12.575526 20.81543,11.962239 20.380535,11.374419 C 20.106953,10.954703 19.76124,10.620468 19.35343,10.33549 C 19.0118,10.067035 18.628904,9.8641562 18.247408,9.6608125 C 17.961826,9.483655 17.679579,9.3048986 17.3862,9.1412097 C 17.009376,8.9454562 16.605846,8.8222995 16.202595,8.6961871 C 15.528292,8.543521 14.847392,8.4258433 14.164767,8.3183602 C 13.76682,8.2568975 13.364258,8.2520365 12.962696,8.245228 C 12.661153,8.2402137 12.359759,8.2452545 12.058813,8.2570234 C 11.78952,8.2807189 11.522212,8.3169858 11.254388,8.3516959 C 11.086119,8.4100014 10.925117,8.4865837 10.762224,8.5579929 L 10.726312,8.4764215 C 10.89633,8.4019678 11.064065,8.3211281 11.240917,8.2635932 C 11.510357,8.2232043 11.780752,8.1961628 12.051796,8.1681735 C 12.355445,8.1562848 12.659495,8.1508972 12.963737,8.1561075 C 13.369333,8.1630023 13.775926,8.1680816 14.177862,8.230201 C 14.865689,8.3323858 15.549137,8.4612094 16.22824,8.6108297 C 16.636663,8.7385627 17.045287,8.8636806 17.426928,9.0619334 C 17.719865,9.2255197 18.002367,9.4029628 18.286929,9.5809271 C 18.672389,9.7863487 19.059237,9.9913927 19.404511,10.262454 C 19.819954,10.553249 20.173096,10.893862 20.452188,11.321415 C 20.888379,11.911153 21.287127,12.52625 21.673838,13.149363 C 21.987194,13.650359 22.288534,14.160326 22.494273,14.716746 C 22.696054,15.169667 22.918246,15.611892 23.16475,16.042406 C 23.512049,16.748656 23.8856,17.441565 24.228954,18.149922 C 24.504701,18.833849 24.717802,19.488467 24.395021,20.197157 C 24.072879,20.919315 23.633727,21.582486 23.119467,22.182863 C 22.722825,22.660557 22.309796,23.066994 21.721713,23.300323 C 21.119622,23.567916 20.499488,23.793889 19.855659,23.944919 C 18.886679,24.163107 17.919595,24.246788 16.927442,24.12899 C 15.636705,24.040222 14.34183,23.927872 13.085303,23.601752 C 12.462403,23.37733 11.948652,23.037187 11.487848,22.555884 C 11.016707,22.105317 10.543673,21.655629 10.106927,21.171069 C 9.673198,20.677437 9.2612868,20.163607 8.8778317,19.629919 C 8.4433422,18.976553 8.1319832,18.269329 8.1592252,17.467091 C 8.1440192,16.576909 8.156452,15.682142 8.2825176,14.799289 C 8.4232103,14.022961 8.6918401,13.306525 9.1139957,12.635649 C 9.4841769,12.065195 9.909449,11.536913 10.376845,11.042545 C 10.714322,10.683806 11.090735,10.384856 11.513651,10.130742 C 11.833148,9.9448078 12.148251,9.751761 12.462606,9.5572024 C 12.91109,9.3022964 13.353783,9.0225835 13.849773,8.8690337 C 14.29291,8.7286022 14.738749,8.5936411 15.197997,8.5151515 L 15.197997,8.6042781 z " />
    <path
       style="opacity:1;fill:#000000;fill-opacity:0;stroke:#d6d3b2;stroke-width:0.8;stroke-linecap:round;stroke-linejoin:round;stroke-miterlimit:4;stroke-dasharray:none;stroke-opacity:1"
       id="path15090"
       d="M 10.694715,8.3558293 C 10.48129,8.5349095 10.244679,8.6834681 10.011252,8.8346286 C 9.7532718,8.9918796 9.5196817,9.1797111 9.2847167,9.3677014 C 9.0442479,9.5847529 8.9535079,9.8855496 8.8453849,10.180504 C 8.7408003,10.554452 8.6778786,10.93884 8.6007372,11.319288 C 8.4889965,11.783789 8.2565721,12.20594 8.0218669,12.617879 C 7.7491736,13.021112 7.3884803,13.35397 7.0557211,13.706307 C 6.7369477,14.035504 6.4946478,14.401062 6.3069617,14.814022 C 6.1960688,15.166695 6.1986176,15.537966 6.1892117,15.90364 C 6.1587906,16.258269 6.2220131,16.599413 6.2956218,16.943295 C 6.494107,17.4739 6.657136,18.015088 6.8166013,18.558505 C 7.0423618,19.227625 7.1840754,19.916983 7.2979845,20.61195 C 7.322288,21.062969 7.5209143,21.416884 7.7495661,21.790074 C 7.9882791,22.158226 8.321668,22.445672 8.6382203,22.743781 C 9.1652184,23.145192 9.6997085,23.537929 10.231626,23.933558 C 10.930585,24.435837 11.695445,24.838345 12.445438,25.257873 C 13.001991,25.562266 13.550213,25.880577 14.120486,26.157455 C 14.847145,26.363611 15.617765,26.277702 16.361975,26.237013 C 17.230595,26.210814 18.071334,25.955857 18.902872,25.723945 C 19.765425,25.481085 20.623748,25.223583 21.472383,24.935743 C 22.050196,24.748997 22.612304,24.51852 23.173785,24.288596 C 23.594564,24.105828 23.959302,23.8271 24.353913,23.598687 C 24.775144,23.363594 25.17375,23.118214 25.521692,22.786267 C 25.731952,22.542569 25.765862,22.23766 25.823042,21.933536 C 25.914583,21.53895 25.9373,21.13501 25.962785,20.732346 C 26.027346,20.293728 26.031033,19.86133 26.004106,19.420797 C 25.970137,19.00519 25.921818,18.591809 25.863604,18.179023 C 25.800583,17.873573 25.719467,17.571603 25.642419,17.269272 C 25.541161,16.916924 25.485284,16.554079 25.426647,16.192893 C 25.369688,15.779167 25.365817,15.361223 25.357721,14.944496 C 25.362567,14.634428 25.268879,14.343297 25.185051,14.051411 C 24.908676,13.613863 24.489203,13.299502 24.095801,12.973484 C 23.751293,12.712309 23.451589,12.406578 23.180245,12.073771 C 22.991251,11.825727 22.849354,11.549717 22.713621,11.270563 C 22.505647,10.885258 22.243097,10.531403 21.993989,10.171751 C 21.669313,9.620792 21.166232,9.2418538 20.663772,8.8652847 C 20.119692,8.4653105 19.479504,8.2341834 18.859673,7.9809851 C 18.422601,7.8164874 18.02367,7.5682423 17.609884,7.3538853 C 17.31496,7.1783311 16.996896,7.0966238 16.664373,7.0351507 C 16.346895,6.9847179 16.028507,7.0248913 15.710964,7.0502025 C 15.362181,7.070261 15.01397,7.0812796 14.666015,7.1123299 C 14.353267,7.1494229 14.038795,7.1622505 13.724328,7.1729528 C 13.43767,7.1648188 13.158788,7.2267541 12.879889,7.2830514 C 12.659727,7.3183377 12.453111,7.4071384 12.243037,7.4800763 C 11.874043,7.5993787 11.521917,7.7562239 11.18012,7.9389577 C 10.62615,8.2904578 10.023745,8.4240083 9.3844188,8.5162605 L 9.371776,8.4280352 C 10.001186,8.338482 10.593057,8.2065273 11.138134,7.8603403 C 11.484304,7.6756574 11.840696,7.5165118 12.214257,7.3957245 C 12.428075,7.3215686 12.638497,7.2314161 12.862633,7.1956112 C 13.146375,7.1383407 13.430214,7.0758732 13.721809,7.0838618 C 14.034145,7.073252 14.346485,7.0605139 14.657113,7.0236491 C 15.005772,6.9927021 15.354644,6.9811421 15.704134,6.961338 C 16.028406,6.9354923 16.353574,6.895225 16.677742,6.9470326 C 17.019681,7.0107924 17.347503,7.0943566 17.650925,7.2747701 C 18.062481,7.4880412 18.45929,7.7350045 18.893971,7.8987223 C 19.520643,8.1547148 20.167465,8.3890587 20.717224,8.7939656 C 21.227448,9.1763793 21.737373,9.56237 22.067526,10.121394 C 22.31894,10.484373 22.583772,10.841563 22.793319,11.230665 C 22.926807,11.505634 23.066439,11.777475 23.252585,12.021709 C 23.518745,12.348896 23.81479,12.647879 24.152671,12.90486 C 24.557437,13.240309 24.989196,13.564137 25.267864,14.018462 C 25.354749,14.320815 25.45219,14.621965 25.446838,14.943198 C 25.45484,15.355911 25.458559,15.769836 25.514776,16.179599 C 25.572944,16.538199 25.628429,16.898429 25.729026,17.248229 C 25.80679,17.553382 25.888818,17.858151 25.951858,18.16658 C 26.010309,18.581125 26.058824,18.996275 26.092945,19.41365 C 26.119415,19.858113 26.117454,20.29461 26.051785,20.737088 C 26.026037,21.143159 26.003081,21.550531 25.910907,21.948481 C 25.850383,22.270105 25.810896,22.590693 25.586762,22.847172 C 25.231619,23.184338 24.82868,23.437996 24.398519,23.675849 C 23.999822,23.906024 23.631942,24.188449 23.206284,24.371586 C 22.643537,24.602042 22.080122,24.832955 21.50101,25.020147 C 20.650819,25.308486 19.790946,25.56651 18.926815,25.809796 C 18.089057,26.043425 17.241947,26.299598 16.36684,26.326006 C 15.608733,26.367444 14.823542,26.454453 14.084377,26.238939 C 13.511693,25.960673 12.960714,25.641758 12.401928,25.335657 C 11.64858,24.91425 10.880372,24.509828 10.178434,24.005071 C 9.6441623,23.607662 9.1070244,23.213504 8.578182,22.809652 C 8.2565116,22.506731 7.9182549,22.214229 7.6757844,21.840072 C 7.4407688,21.455508 7.2354979,21.088793 7.2097743,20.624697 C 7.0966585,19.933868 6.9554919,19.248709 6.7310809,18.5836 C 6.5712105,18.038803 6.4071623,17.496507 6.2090016,16.964283 C 6.1339434,16.613058 6.0694618,16.264295 6.1000972,15.902177 C 6.1098373,15.5259 6.1079595,15.14407 6.2239347,14.781618 C 6.417309,14.358629 6.6631727,13.982121 6.9909258,13.64511 C 7.3194437,13.297292 7.6755655,12.968725 7.9457903,12.571447 C 8.175778,12.168337 8.4035496,11.754942 8.5136067,11.300531 C 8.5914003,10.91684 8.6547338,10.529127 8.7608874,10.152154 C 8.8752444,9.8414233 8.9728363,9.5269223 9.2275117,9.2993558 C 9.465346,9.1092558 9.7016134,8.9190425 9.9626303,8.7599327 C 10.190913,8.612139 10.422068,8.4667682 10.631693,8.2928073 L 10.694715,8.3558293 z " />
    <path
       style="opacity:1;fill:#000000;fill-opacity:0;stroke:#d6d3b2;stroke-width:0.8;stroke-linecap:round;stroke-linejoin:round;stroke-miterlimit:4;stroke-dasharray:none;stroke-opacity:1"
       id="path15092"
       d="M 8.4767659,6.2542335 C 8.1868389,6.8934422 7.9016901,7.5332981 7.599637,8.1669709 C 7.3083518,8.8292856 6.9962495,9.4838537 6.7500641,10.164752 C 6.6199199,10.600251 6.3749284,10.984121 6.1550892,11.377961 C 6.0057455,11.67532 5.8689682,11.97861 5.7355174,12.283341 C 5.5999028,12.587129 5.4567595,12.887461 5.319014,13.190134 C 5.0947353,13.803824 4.9436921,14.44354 4.7972205,15.079733 C 4.6842818,15.64925 4.5970087,16.224148 4.5137376,16.798805 C 4.4259013,17.233899 4.3728185,17.667816 4.3776735,18.109802 C 4.396759,18.448977 4.5730112,18.729056 4.736557,19.015737 C 4.9326779,19.387079 5.1647784,19.735086 5.3975249,20.083976 C 5.7313306,20.592882 5.8614418,21.187357 6.0184072,21.765741 C 6.153698,22.339471 6.2677596,22.911192 6.4842238,23.460809 C 6.6426687,23.902222 6.886532,24.285202 7.184841,24.640873 C 7.5591484,24.967032 8.0558624,25.120021 8.5082259,25.309601 C 9.1284732,25.554553 9.716735,25.871397 10.325749,26.142454 C 10.76999,26.335601 11.213225,26.530968 11.658099,26.722701 C 12.209768,26.981071 12.811462,27.115544 13.39919,27.266588 C 14.364904,27.464583 15.342493,27.598445 16.324602,27.679483 C 17.468048,27.768151 18.617031,27.741979 19.758348,27.639626 C 20.573586,27.558546 21.358461,27.33613 22.118412,27.038942 C 22.807929,26.772792 23.452101,26.423368 24.072327,26.024905 C 24.580567,25.714443 25.038993,25.33428 25.497662,24.957123 C 25.825361,24.730844 26.081274,24.447102 26.314543,24.131885 C 26.548189,23.691043 26.760769,23.239668 26.997674,22.800623 C 27.245751,22.225503 27.483628,21.646171 27.734589,21.072317 C 27.936886,20.652537 28.046849,20.229424 28.091263,19.773752 C 28.072382,19.193747 27.906149,18.633819 27.790606,18.068262 C 27.633059,17.169203 27.56737,16.256785 27.519403,15.346219 C 27.532172,14.803616 27.462424,14.283123 27.313074,13.763209 C 27.105737,13.143369 26.828306,12.548809 26.533435,11.966396 C 26.273945,11.475894 26.041604,10.971978 25.785383,10.48047 C 25.494237,9.9551317 25.216978,9.4227916 24.918117,8.9021773 C 24.566916,8.4287456 24.029113,8.1542193 23.51658,7.8837687 C 22.739616,7.5459964 21.927324,7.3011964 21.129416,7.0196953 C 20.52457,6.8124179 20.011019,6.4424882 19.521416,6.0421057 C 18.957356,5.5242634 18.331094,5.1069714 17.65023,4.7629645 C 17.177832,4.5087822 16.668162,4.4069425 16.144102,4.3409159 C 15.73828,4.3240774 15.337502,4.3838681 14.937733,4.443438 C 14.527038,4.5051547 14.117876,4.575578 13.706898,4.6351193 C 13.36988,4.6469236 13.043311,4.7111561 12.716185,4.7864321 C 11.946761,4.9793573 11.194238,5.2292119 10.445228,5.4888429 C 9.9425734,5.6701577 9.4453388,5.8633736 8.957985,6.081574 C 8.7991528,6.1673623 8.6274004,6.2225325 8.4609674,6.2896693 L 8.4319181,6.2054097 C 8.5949622,6.1396348 8.7632415,6.0856076 8.9188278,6.0015099 C 9.4094661,5.7818121 9.90992,5.5869916 10.416039,5.4046316 C 11.167375,5.1442184 11.922245,4.893635 12.694045,4.7000991 C 13.02463,4.6241058 13.354721,4.558689 13.695278,4.5467535 C 14.105526,4.4873375 14.513948,4.416948 14.923919,4.3553886 C 15.331118,4.2949134 15.739359,4.2340261 16.152702,4.2522052 C 16.687653,4.3200835 17.208191,4.4238833 17.690429,4.6834183 C 18.377,5.030448 19.008899,5.4510777 19.577848,5.9731205 C 20.05934,6.3671236 20.564041,6.7317086 21.15907,6.9356467 C 21.961055,7.2186268 22.777662,7.4643993 23.558188,7.8049508 C 24.085144,8.0832569 24.63513,8.3664522 24.994022,8.8554654 C 25.309258,9.3680271 25.559525,9.9166159 25.862785,10.436284 C 26.119699,10.929134 26.35301,11.43419 26.612953,11.926142 C 26.910295,12.513588 27.190095,13.113288 27.398742,13.738624 C 27.549664,14.265011 27.62121,14.792278 27.608406,15.341531 C 27.65612,16.247684 27.721407,17.155682 27.877929,18.050422 C 27.994741,18.622207 28.162765,19.188325 28.180382,19.774893 C 28.133062,20.242447 28.025761,20.677393 27.816344,21.10781 C 27.564349,21.683977 27.325824,22.265785 27.076104,22.842959 C 26.837979,23.283935 26.625073,23.737711 26.389494,24.180114 C 26.150283,24.501898 25.891032,24.794007 25.555475,25.024954 C 25.093712,25.404656 24.632132,25.78729 24.120498,26.099893 C 23.495281,26.501493 22.845847,26.853638 22.150855,27.121954 C 21.382941,27.421895 20.590011,27.646752 19.766302,27.728397 C 18.619887,27.831025 17.465812,27.857506 16.31727,27.768308 C 15.330167,27.686776 14.347558,27.552329 13.377004,27.352909 C 12.784808,27.200687 12.178722,27.064838 11.622833,26.804554 C 11.177634,26.612674 10.734071,26.417167 10.289504,26.223878 C 9.6811149,25.953013 9.0933581,25.636638 8.4737768,25.3918 C 8.0092899,25.197136 7.5000161,25.039724 7.1186658,24.700575 C 6.8140938,24.336243 6.563075,23.945257 6.4012885,23.493447 C 6.1839088,22.940664 6.0677557,22.366171 5.9323919,21.789084 C 5.777936,21.219943 5.6510717,20.634419 5.3232596,20.133253 C 5.0895345,19.782883 4.8565262,19.433309 4.6594664,19.060465 C 4.4891879,18.761724 4.3080951,18.469163 4.2887463,18.115761 C 4.2845393,17.667467 4.3352251,17.227243 4.4255326,16.786021 C 4.5091863,16.208948 4.5967773,15.631618 4.7103667,15.059734 C 4.8580509,14.418441 5.0102996,13.773566 5.2370338,13.155165 C 5.3748642,12.852282 5.5180015,12.551711 5.6538004,12.247761 C 5.7884268,11.940429 5.9263168,11.6345 6.0771671,11.334698 C 6.2947116,10.944968 6.5376271,10.565453 6.666252,10.134436 C 6.9136166,9.4508724 7.2264843,8.7934975 7.5191833,8.1286205 C 7.8201434,7.4972559 8.1042085,6.8597082 8.3933141,6.222939 L 8.4767659,6.2542335 z " />
    <path
       style="opacity:1;fill:#000000;fill-opacity:0;stroke:#d6d3b2;stroke-width:0.8;stroke-linecap:round;stroke-linejoin:round;stroke-miterlimit:4;stroke-dasharray:none;stroke-opacity:1"
       id="path15094"
       d="M 14.624025,10.505632 C 14.291859,10.620565 13.968426,10.757132 13.642261,10.88773 C 13.366917,10.995573 13.108202,11.136966 12.847975,11.27561 C 12.646399,11.375717 12.453162,11.491378 12.259388,11.603938 C 12.095561,11.756011 11.982775,11.950911 11.859523,12.135067 C 11.730988,12.358497 11.588915,12.573197 11.443871,12.786007 C 11.254357,13.028308 11.097191,13.293755 10.934458,13.554324 C 10.695168,13.888023 10.512612,14.254344 10.337922,14.623917 C 10.146248,15.039282 9.9848899,15.462383 9.856054,15.900313 C 9.76659,16.236142 9.7655316,16.576903 9.7820736,16.920286 C 9.8233028,17.218752 9.9587982,17.481352 10.087262,17.748611 C 10.207524,17.989419 10.373055,18.201932 10.516755,18.428591 C 10.640263,18.664169 10.814422,18.846509 10.99318,19.036578 C 11.218738,19.214939 11.373738,19.457377 11.533899,19.691902 C 11.667524,19.905562 11.87007,20.0366 12.066073,20.181976 C 12.344994,20.380348 12.669374,20.462411 12.991884,20.560462 C 13.492065,20.712511 13.989602,20.869707 14.482359,21.044389 C 14.784366,21.134472 15.067708,21.271974 15.354504,21.399796 C 15.681943,21.563436 16.022524,21.698078 16.360714,21.837159 C 16.744055,21.997643 17.107436,22.015809 17.506145,21.971321 C 18.085178,21.799115 18.643287,21.567099 19.209958,21.359781 C 19.635658,21.218358 20.046055,21.039777 20.45338,20.85358 C 20.878189,20.651973 21.175906,20.308145 21.47582,19.959851 C 21.743512,19.630041 21.930953,19.253357 22.09833,18.866849 C 22.203758,18.562442 22.220359,18.242642 22.226078,17.924623 C 22.197252,17.685339 22.059984,17.494222 21.944029,17.293025 C 21.761129,17.045836 21.541515,16.82927 21.332005,16.604947 C 21.123195,16.378459 20.96159,16.123356 20.807066,15.858563 C 20.630974,15.537486 20.595545,15.182189 20.558814,14.825662 C 20.572433,14.507251 20.484298,14.206135 20.40437,13.905508 C 20.303467,13.632802 20.09,13.501169 19.865342,13.334535 C 19.5306,13.122756 19.295777,12.808836 19.057209,12.500988 C 18.865564,12.249407 18.622438,12.044953 18.38472,11.839192 C 18.143386,11.678315 17.869071,11.588632 17.598128,11.49322 C 17.310157,11.393379 17.014428,11.318822 16.722693,11.230771 C 16.44574,11.153088 16.180412,11.043834 15.913655,10.939541 C 15.615752,10.785586 15.347835,10.57861 15.064192,10.399981 C 14.829161,10.229161 14.570322,10.195373 14.297795,10.148776 C 13.919736,10.179254 13.573267,10.340004 13.227829,10.484545 C 12.806476,10.673697 12.422726,10.920678 12.042838,11.179896 L 11.991993,11.106695 C 12.377201,10.844188 12.766194,10.593706 13.193438,10.402321 C 13.551206,10.252968 13.909752,10.087144 14.301822,10.059741 C 14.592575,10.09442 14.858589,10.154632 15.108449,10.322619 C 15.38998,10.500016 15.656404,10.704718 15.951314,10.858761 C 16.213804,10.961297 16.475009,11.068538 16.747452,11.145152 C 17.040102,11.233498 17.336766,11.308294 17.625649,11.408449 C 17.906894,11.507499 18.191735,11.601078 18.441034,11.770109 C 18.68434,11.98073 18.932966,12.190134 19.128809,12.447913 C 19.361533,12.748328 19.589862,13.055241 19.916688,13.261685 C 20.153852,13.43867 20.380227,13.582692 20.486754,13.871501 C 20.5694,14.181191 20.661769,14.49061 20.647665,14.818661 C 20.682795,15.162306 20.715698,15.505127 20.88478,15.814927 C 21.035552,16.073637 21.193006,16.322847 21.397046,16.544011 C 21.609098,16.771055 21.831278,16.990353 22.016191,17.240717 C 22.141048,17.457673 22.287267,17.662673 22.315144,17.921318 C 22.309017,18.251555 22.291927,18.583383 22.181374,18.899209 C 22.009888,19.294644 21.818301,19.68016 21.54391,20.01736 C 21.235476,20.374995 20.928488,20.727234 20.491875,20.933964 C 20.08196,21.121348 19.668969,21.301121 19.240578,21.443483 C 18.670071,21.652166 18.108262,21.886047 17.524999,22.05843 C 17.108037,22.103416 16.728702,22.088968 16.328308,21.920186 C 15.988925,21.780618 15.647118,21.645549 15.318523,21.481337 C 15.033684,21.354387 14.752358,21.217664 14.452361,21.128315 C 13.960948,20.954051 13.464718,20.797387 12.965893,20.645714 C 12.636094,20.545371 12.303481,20.460212 12.0183,20.257217 C 11.813317,20.104686 11.600944,19.967158 11.461186,19.743442 C 11.304746,19.514274 11.154012,19.276747 10.933411,19.102693 C 10.738419,18.914342 10.576486,18.712811 10.441199,18.475865 C 10.29031,18.250468 10.132231,18.028354 10.006973,17.787303 C 9.8735939,17.50982 9.7342121,17.236496 9.6931514,16.926317 C 9.6766915,16.573338 9.6775027,16.223034 9.7697943,15.87789 C 9.9002748,15.435427 10.06236,15.007483 10.256412,14.587866 C 10.433322,14.213856 10.617905,13.843006 10.86007,13.505232 C 11.023288,13.243887 11.181028,12.977652 11.37107,12.734591 C 11.516183,12.521772 11.657833,12.306784 11.786786,12.08356 C 11.915708,11.890957 12.033688,11.687048 12.20823,11.530956 C 12.405872,11.415892 12.602677,11.297524 12.808528,11.195689 C 13.070771,11.055922 13.331663,10.913649 13.609169,10.804975 C 13.93696,10.673752 14.26202,10.53656 14.595841,10.421079 L 14.624025,10.505632 z " />
  </g>
  <g
     inkscape:groupmode="layer"
     id="layer4" />
</svg>
